/* XPM */
static char *landscape_format__white_background__no_shadow_designify_removebg_preview__1_1679145774[] = {
/* columns rows colors chars-per-pixel */
"64 64 230 2 ",
"   c #1D1B17",
".  c #1D1C1A",
"X  c #151C0C",
"o  c #2B1E0B",
"O  c #261A0C",
"+  c #261F14",
"@  c #221D1B",
"#  c #281B17",
"$  c #1D211B",
"%  c #2C200D",
"&  c #252115",
"*  c #2A2216",
"=  c #23221D",
"-  c #2C251B",
";  c #2C291D",
":  c #2F2911",
">  c #342413",
",  c #332916",
"<  c #32261A",
"1  c #332A1A",
"2  c #3D2C1C",
"3  c #3B2715",
"4  c #3B2108",
"5  c #191C22",
"6  c #211F20",
"7  c #262523",
"8  c #2B2724",
"9  c #262B25",
"0  c #2A2925",
"q  c #262629",
"w  c #2C262A",
"e  c #262A2B",
"r  c #2B2A29",
"t  c #302723",
"y  c #312A22",
"u  c #322C2B",
"i  c #392D21",
"p  c #36312E",
"a  c #373434",
"s  c #422F19",
"d  c #47351C",
"f  c #55391E",
"g  c #443109",
"h  c #4D3921",
"j  c #493723",
"k  c #523E24",
"l  c #563F2D",
"z  c #423D3A",
"x  c #554327",
"c  c #56442A",
"v  c #5A442B",
"b  c #5C492E",
"n  c #594426",
"m  c #4A4B3F",
"M  c #5D4A31",
"N  c #574633",
"B  c #4B4223",
"V  c #624B2F",
"C  c #644E36",
"Z  c #6E4F33",
"A  c #6A543B",
"S  c #695439",
"D  c #7C592D",
"F  c #7C623B",
"G  c #724E12",
"H  c #3F3D40",
"J  c #4B4643",
"K  c #514E4C",
"L  c #545249",
"P  c #5B5754",
"I  c #6B5845",
"U  c #735C42",
"Y  c #655B5B",
"T  c #7B6245",
"R  c #67615B",
"E  c #786552",
"W  c #6B6666",
"Q  c #746A68",
"!  c #77736D",
"~  c #757172",
"^  c #80591E",
"/  c #885C21",
"(  c #855E3D",
")  c #99682D",
"_  c #83653C",
"`  c #8C6639",
"'  c #966A33",
"]  c #9A6C34",
"[  c #956D3B",
"{  c #9A6E3B",
"}  c #956737",
"|  c #9D723D",
" . c #9B723B",
".. c #8E602C",
"X. c #A06E35",
"o. c #A37135",
"O. c #A4743C",
"+. c #AC7B3F",
"@. c #A7773D",
"#. c #B07A3E",
"$. c #876740",
"%. c #856943",
"&. c #886942",
"*. c #896B4A",
"=. c #976D42",
"-. c #8C724A",
";. c #9C7544",
":. c #94724C",
">. c #9E794D",
",. c #9A7548",
"<. c #866D54",
"1. c #8A7458",
"2. c #987957",
"3. c #A47642",
"4. c #A57943",
"5. c #AC7C43",
"6. c #A27C4D",
"7. c #AC7E4A",
"8. c #A87745",
"9. c #B17F44",
"0. c #A27D52",
"q. c #A77E58",
"w. c #847572",
"e. c #7F817E",
"r. c #9C8456",
"t. c #AD8145",
"y. c #AD814C",
"u. c #B28145",
"i. c #B3834C",
"p. c #BC874F",
"a. c #A58256",
"s. c #AC8453",
"d. c #A9855B",
"f. c #A4835A",
"g. c #B58452",
"h. c #B88653",
"j. c #B68A53",
"k. c #BD8C53",
"l. c #BB8E59",
"z. c #BF9259",
"x. c #BD9057",
"c. c #8F8673",
"v. c #AA8863",
"b. c #AF916B",
"n. c #B2946D",
"m. c #A78D71",
"M. c #AA8E75",
"N. c #AA9172",
"B. c #AF9479",
"V. c #B49671",
"C. c #BA9B75",
"Z. c #B79977",
"A. c #B08A66",
"S. c #BAA27C",
"D. c #C4955D",
"F. c #C8975F",
"G. c #C6995E",
"H. c #C59355",
"J. c #C38F53",
"K. c #C19560",
"L. c #C99662",
"P. c #C79962",
"I. c #CB9B65",
"U. c #CE9F69",
"Y. c #D29D65",
"T. c #C3A37C",
"R. c #CEA675",
"E. c #DBB17F",
"W. c #D5A871",
"Q. c #8D8E8C",
"!. c #9B9B9B",
"~. c #B49780",
"^. c #BEA686",
"/. c #ADA49D",
"(. c #ADA6A1",
"). c #ACAAA4",
"_. c #AEACAD",
"`. c #B1ACA8",
"'. c #B7B2AE",
"]. c #BCB7B3",
"[. c #CBAA83",
"{. c #C7A786",
"}. c #D1AE83",
"|. c #DDB282",
" X c #D5B38A",
".X c #DAB68C",
"XX c #D4B187",
"oX c #CCAF95",
"OX c #C6B398",
"+X c #D9B892",
"@X c #E1B586",
"#X c #E1B78C",
"$X c #E1B98A",
"%X c #E2B886",
"&X c #E1BE99",
"*X c #E1BB97",
"=X c #C1BEBA",
"-X c #D2BCA2",
";X c #DFC19B",
":X c #E3C29C",
">X c #E1C097",
",X c #DBC6B7",
"<X c #C5C0BC",
"1X c #E5C5A4",
"2X c #E7CBBC",
"3X c #CCC7C4",
"4X c #D6CCC8",
"5X c #D9D1CE",
"6X c #DAD3DA",
"7X c #E7DAC7",
"8X c #F2DDCE",
"9X c #E4DBD9",
"0X c #F4DED2",
"qX c #F7E4CD",
"wX c #EAE2DD",
"eX c #F5E2D3",
"rX c #F9E4D4",
"tX c #FAE7D9",
"yX c #F6E7D9",
"uX c #EDE5E3",
"iX c #EDEBE3",
"pX c #EFEBEC",
"aX c #F0E6E4",
"sX c #F4EAE4",
"dX c #F1E7E9",
"fX c #F5E9E9",
"gX c #FBEAE5",
"hX c #FEF5EA",
"jX c #FBF6EB",
"kX c #FCF7F6",
/* pixels */
"0 0 0 0 0 0 0 0 0 0 7 r 0 9 r ; 9 X $ X X # # @ . $ 6 @ : & q e 0 8 r u r r u u u u t y 0 a q 8 ; ; $ 9 e r r w w 0 r e q r 0 8 ",
"0 0 0 0 0 0 0 q 0 0 0 q 8 8 r = J e.! e.w.Q Q W W P P L m m a a p 8 = .   . # # . @ # # 5 . . q = 0 9 a 9 r 0 8 w 8 e r e r ; y ",
"0 0 0 0 0 0 0 0 0 0 0 0 0 0 r = W kXkXfXhXkXkXkXjXjXgXyXtXwX9X6X3X<X_.!.Q.c.~ ! Q W Q W Q ~ ~ u y r e e 7 0 y y - 8 0 9 9 9 9 8 ",
"0 0 0 0 0 0 0 0 0 0 0 0 8 0 0 . W kXdX9X-X2X2X2X4X7XqXrXqXrXgXhXhXhXhXjXkXjXhXhXhXhXhXhXdXkXkXP - 1 0 0 - * * 1 j - 0 0 e 9 ; 0 ",
"0 0 0 0 0 0 0 0 0 0 0 0 0 0 p . W kXfXgXB.( *.:.-.-.>.>.6.s.v.A.V.Z.T.C.S.^.^.^.oXOXOX-X5XwXkXY O > 3 3 h v T Z.OXS + - 0 0 0 8 ",
"0 0 0 0 0 0 0 0 0 0 0 0 9 0 0 . W dXaXrXT.=.` _ r.r.a.r.6.>.>.>.,.,.:.:.-.-.-.-.<.2.*.Z oXhX0X<.f Z U 1.v.q.d.>X1XZ o i 0 9 y 8 ",
"0 0 0 0 0 0 0 0 0 0 0 0 8 8 0 = W dXjXqXC.;.F g B B c M M S I I E E E 1.1.1.1.2.q.w.q.( q.K.v.q.q.d.d.s.q.y.s..X:XS o 1 8 8 u r ",
"0 0 0 0 0 0 0 0 0 0 0 0 0 8 r = R fXyXqXT.a.v.s : : ; * ; - = = # # * - = * : , > 4 ^ =.=.=.;.4.7.7.s.s.8.7.j.|.:XA o y u q q r ",
"0 0 0 0 0 0 0 0 0 0 0 0 0 r 0 = Y fXgXrXT.d.Z.s < t w w 0 ; ; 0 r ; 8 1 ; ; ; 1 ; 3 &. .,.;.;.@.4. .) D | 7.g.#X:XF + r r e e e ",
"0 0 0 0 0 0 0 0 0 0 0 0 0 0 0 = P jXgXrXT.d.~.s t w u u 0 0 0 0 8 ; ; 0 8 0 0 0 0 1 T ;.[ ` D G G ^ ) 3.n.l.g.#X1XI + r e e e e ",
"0 0 0 0 0 0 9 0 0 0 0 0 0 0 0 = P iXiXeXC.v.~.i 8 w u w u 8 y 8 0 0 y t r r r r 0 1 %. .[ l.j.o.t.t.i.j.Y.h.g.#X1XU + 9 9 9 e 9 ",
"0 0 0 0 0 0 0 0 0 0 0 r 0 0 0 = P iXiXeX{.f.B.i 8 w w w w t ; 8 0 0 t t q r e r q i -.[ [ I.G.O.t.t.u.9.L.h.k.$X1XU + 8 9 9 ; ; ",
"0 0 0 0 0 0 0 0 0 0 0 0 0 0 r = P wXyXyXT.a.B.i - 9 0 0 0 0 8 8 9 0 y 8 r 0 e e q : %.4.{ P.F.+.t.u.u.u.Y.k.p.%X:XA % 1 9 ; ; ; ",
"0 0 0 0 0 0 0 0 0 0 0 0 8 0 0 $ K iXiXyX[.a.B.s - 0 0 0 0 9 9 9 e 0 - y 0 8 e e 0 ; _ ;.' L.F.8.t.t.u.u.Y.u.p.E.:XS % 0 9 ; ; 1 ",
"0 0 0 0 0 0 0 0 0 0 8 0 0 r r = K iXdXtX[.q.M.i ; 9 8 0 e r 0 r e r t t ; 9 9 9 9 , &.O.{ L.I.8.y.t.t.i.Y.u.j.|.1XA & 0 r r 0 y ",
"0 0 0 0 0 0 0 0 0 0 0 0 8 0 0 = K uXdXwX{.q.M.2 ; 9 0 0 r r r r r q r t 0 ; 9 9 0 , _ | X.L.I.8.t.t.u.u.Y.t.j.>X;XU @ r r r r r ",
"0 0 0 q 0 0 0 0 0 0 0 0 0 0 r = K uXaXtX[.>.M.2 t 8 0 r q w 0 0 0 0 0 0 0 0 0 0 0 1 $.| ] L.L.5.t.t.5.u.U.i.h.|.:XA & 0 0 r r r ",
"0 0 0 0 0 0 0 0 0 0 0 0 0 0 0 = J wXaXtX[.0.m.2 t q 0 0 r 8 0 ; 8 8 e 9 0 0 8 0 r 1 $.{ ] L.I.5.5.u.u.u.U.y.h.#X1XA * 0 0 0 0 0 ",
"0 0 0 0 0 0 0 0 0 0 0 0 0 0 r = J uXuXtX[.0.m.2 < 0 r q w 8 r 0 0 0 9 r 0 0 8 0 8 , _ | ] D.L.5.u.u.u.u.U.y.h.@X:XA + 0 0 0 0 q ",
"0 0 0 0 0 0 0 0 0 0 9 0 0 0 0 = J wXuXtX[.0.m.2 < 8 r 0 r 8 8 8 y 0 0 e 0 0 0 0 0 1 $.{ ] L.L.8.t.u.#.u.U.i.j.@X:XA + u 0 r 0 0 ",
"0 0 0 0 0 0 0 0 0 0 0 0 0 0 0 = J wXuXtX[.0.m.2 8 8 r 0 0 8 0 0 8 0 0 0 0 0 0 0 0 , %.| ] D.L.5.9.u.#.u.U.i.h.@X:XS * 0 0 0 0 q ",
"0 0 0 0 0 0 0 q 0 0 0 0 0 0 r = J wXuXtX[.0.m.2 < 8 r 0 r 0 0 ; 0 0 r 0 0 0 0 0 0 1 _ | ] D.L.5.7.u.9.u.U.y.h.@X:XS & 0 0 0 0 0 ",
"0 q 0 0 0 0 0 0 0 0 8 0 0 0 0 = a 9XiXtX[.0.m.2 - r 0 0 r 0 0 0 0 0 9 0 0 0 0 0 0 1 &.O.] F.F.8.5.9.9.u.U.y.h.@X&XA & 0 8 8 q r ",
"0 7 0 0 0 0 0 0 0 0 8 0 8 r r = z 9XyXtXT.6.m.2 < 8 0 0 r 8 0 ; 0 0 0 e 0 0 8 0 0 1 $.| ] F.L.5.9.u.9.u.U.7.h.|.&XA & 0 8 r 0 r ",
"0 0 0 0 0 0 0 0 0 0 0 q 0 0 0 9 a 5XsXrX[.r.m.2 * 8 0 0 8 y 8 0 0 y 9 9 0 0 0 0 0 1 &.;.] G.F.8.u.5.#.u.I.7.g.|.:XA & 8 8 0 0 0 ",
"0 0 0 0 0 0 0 0 7 0 0 0 0 0 0 8 a 5XwXrX[.>.b.2 ; 8 0 0 r 0 8 0 0 0 r 9 0 0 r 0 0 , _ O.] G.F.8.5.u.u.u.U.7.g.|.&XA * 8 0 0 r 0 ",
"0 0 0 0 0 0 0 0 0 0 0 0 0 0 0 = a 4XsXeX[.>.N.2 1 0 0 0 8 0 0 0 0 0 0 r 0 0 r 8 0 1 _ | ] G.L.8.u.u.9.u.I.7.h.|.&XC # r 0 0 r 0 ",
"0 0 0 0 0 0 0 0 0 0 0 0 0 0 0 9 p 4XyXrXE.a.N.2 ; 0 0 0 8 8 0 0 y 0 0 0 0 0 8 8 8 1 &.| ] D.L.5.9.t.u.u.U.7.h.|.&XA + r 0 0 r r ",
"0 0 0 0 0 0 0 0 0 7 0 0 7 0 0 8 p 3XiXeX[.6.N.2 < 8 0 0 0 y 8 0 0 0 9 r 0 0 0 0 8 , %.| ] D.F.8.9.9.u.u.I.y.h.|.&XS * 0 0 8 0 0 ",
"0 0 0 0 0 0 0 0 0 0 0 0 0 0 8 7 p 3XsXeXE.a.N.2 ; ; 0 0 r r 0 0 0 0 r 9 9 0 0 0 8 1 &.| ] F.F.8.9.u.u.i.P.7.h.|.&XC * 0 0 9 r r ",
"0 0 0 0 0 0 0 7 0 0 0 0 7 0 q 8 p 3XsX8X[.>.b.s < 8 0 0 8 8 8 0 0 0 9 r 0 0 r 8 8 1 _ | ] D.L.5.9.9.u.u.I.7.g.|.&XC + r 0 9 0 r ",
"0 0 0 0 0 0 0 0 0 0 0 0 7 0 r 8 u 3XsX8X}.r.N.s - 8 0 0 8 8 0 0 8 y 0 0 0 0 0 8 8 1 $. .] D.L.8.5.u.u.u.I.8.g.|.&XC & 0 0 0 r 0 ",
"0 0 8 8 0 0 0 0 0 0 0 0 0 0 0 0 u =XgX8X}.,.N.h - r 0 7 0 0 0 0 r r r 9 0 0 0 0 0 1 $.{ { F.F.8.5.5.u.9.U.6.5.6.:XM ; 9 9 r 0 r ",
"0 8 9 9 0 0 0 0 9 0 0 0 0 0 0 0 0 =XfX0X X6.b.d - 0 0 0 0 0 0 r r 8 9 0 0 0 0 8 q 1 $.;.' H.D.5.5.9.u.u.z.4...[ ;XM & r 9 r 8 r ",
"0 0 0 0 0 0 8 0 0 0 0 0 0 0 0 0 8 =XfX0X}.6.n.h - 9 0 0 0 0 0 r r 8 0 9 0 0 y 8 8 2 $.{ ] P.I.O.5.u.9.i.z.;... .;XM & r 0 0 8 r ",
"0 0 8 8 7 9 8 7 0 0 0 0 0 0 0 0 = ].fX0XXX;.n.d - 0 0 0 0 0 0 0 8 r 0 0 0 ; 8 r q 2 &.{ ] K.H.] O.O.#.u.I.y.y.R.;XM & e 0 0 8 u ",
"0 8 = 7 = = = 7 8 0 0 0 0 0 0 0 = '.fX0X X;.V.h - 8 0 8 8 8 9 r 0 r 9 0 0 0 0 0 8 1 $.;.] 5.9.o.] X.] o.j.3.i.$X:Xb & 9 0 r 0 8 ",
"9 7 = = . . = = 9 0 0 0 8 9 0 0 = '.fXrX X;.V.d - 9 0 9 0 7 0 r r 0 r 9 0 ; 0 0 w < $.| ' O.8.@.t.u.+.+.5.3.y.|.:XM & r q r 8 w ",
"8 7 = .     @ = 0 0 0 0 0 0 8 r = '.fX0X X;.V.h ; 0 0 0 0 0 0 r 0 0 9 0 0 0 y r u 1 _ [ ] 3.@.8.5.u.9.9.3.y.y..X;Xb & 0 8 r 0 w ",
"9 7 =     . = 7 7 0 0 0 8 8 8 r = `.fX0X X;.V.d - 0 0 8 0 0 0 r r r 0 0 0 ; 8 8 8 1 _ | ] ' ) 5.5.+.u.u.i.y.i.|.:Xb * 0 8 r 8 8 ",
"8 = = = = = 7 7 0 0 0 0 0 0 0 r = `.fXeXXX;.V.k ; 0 0 9 8 8 0 0 r 0 0 0 0 0 0 0 0 , _ { ] g.5.^ ) ) ) X.{ 8.i.|.+Xb ; 0 9 9 r r ",
"8 8 = 9 = 7 = 8 0 0 0 0 0 0 0 0 = `.gX0X.X;.n.k : 0 0 0 8 9 r r 8 r 0 9 0 ; 0 8 u 1 _ | O.D.D.O.o.o.o.o.5.3.y.@X:Xv * r 8 8 r 8 ",
"0 0 0 0 0 0 0 0 0 0 0 9 0 9 0 0 = `.fXrX.X;.V.k * 9 0 0 0 9 0 0 r 0 e 0 0 0 y 8 w 1 _ [ { z.D.8.t.+.u.u.I.y.i.@X+Xv - 0 0 8 8 8 ",
"0 0 0 0 0 0 0 0 0 0 0 0 0 0 0 0 = `.fX8X.X;.V.k & 0 0 8 0 ; 0 0 0 r 0 9 0 ; r 8 8 < $.{ ] J.D.o.+.@.+.u.U.3.9.E.:Xv * r 0 8 0 0 ",
"0 0 8 0 0 0 0 9 0 0 0 0 0 0 0 0 = ).fX8X.X;.V.x * 0 0 0 0 8 0 0 8 r e 0 9 8 r 8 8 1 $.{ ] z.F.O.+.9.+.9.I.4.i.%X:Xc - 0 0 9 8 0 ",
"0 0 7 0 8 0 0 0 0 0 0 0 0 0 0 0 = ).fX8X.X,.V.c ; 0 0 0 8 0 0 0 0 r 0 9 0 0 y 8 w 1 $.[ ' j.D.o.@.t.#.u.P.5.7.|.>Xc * r 0 0 0 0 ",
"0 0 0 0 0 0 0 0 0 0 0 0 0 0 0 0 = (.fXqX X;.C.c & 9 8 8 9 8 0 0 w q 0 0 0 9 8 8 u < _ { ] z.L.O.+.u.#.u.L.3.u.@X&Xn * 0 0 0 0 0 ",
"0 0 0 0 0 0 9 8 0 0 0 0 0 0 0 8 - (.fX8X+X;.C.c * 0 8 9 ; ; 0 e 0 0 r 0 0 ; 0 r r > _ ;.' l.D.| t.t.+.u.I.8.i.|.&Xv - 0 9 9 0 0 ",
"0 0 0 0 0 0 0 q 0 0 0 0 0 0 0 0 - /.fX0X+X,.C.c * 8 8 ; ; ; 0 r e 0 8 8 0 0 e r 9 , F  .[ x.K.| t.+.+.u.L.8.7.|.*XV - r e r q r ",
"0 0 0 0 0 0 0 7 0 0 0 0 0 0 0 0 - (.fX0X+X,.V.n * r r 0 ; - r r e 0 y t r 0 r e 9 ; _ ' ' z.K.| +.+.+.u.L.8.h.|.*XC # w 0 9 r e ",
"0 0 0 0 0 0 0 0 0 0 0 0 0 0 0 w = (.dXeX.X,.V.n * 0 r 0 ; ; r e e e t t 8 8 r r 9 , _ ' ' l.D.O.5.+.#.9.F.5.i.@X*XV # r 8 r 0 8 ",
"0 0 0 0 0 0 0 0 0 0 0 0 0 0 0 0 7 ).dX0X.X;.b.b * 0 8 0 8 0 r e e 0 r 1 0 0 e 0 y , _ [ ] l.H.o.+.#.#.#.F.5.i.E.+XV # u t 8 8 8 ",
"0 0 0 0 0 0 0 0 0 0 0 0 0 0 0 0 = ).fXeX.X@.b.b * w 0 9 0 9 e r e 0 r t 0 0 0 0 9 , _ ] ) J.J.o.+.+.#.9.G.+.y.E.+XV * u 8 y t 8 ",
"0 0 0 0 0 0 0 0 0 0 9 0 0 0 0 r $ ).pXeX.Xt.v.b * r 9 e e 0 r e 9 0 8 t 0 0 0 0 9 , F  .} k.H.o.+.5.+.9.G.3.y.E.+Xb & r 8 8 u 8 ",
"0 0 0 0 0 0 7 0 0 0 0 0 0 0 0 0 $ _.uXqX>X+.d.c * r 9 9 r r 0 r 0 8 t t 0 y 0 0 y : _ ' } p.J.o.O.4.t.9.D.@.y.|.+XM & e 0 r 8 0 ",
"0 0 0 0 0 0 0 0 0 0 0 0 0 0 0 0 = ).uXqXE.+.f.n - 0 9 9 0 q 0 0 0 8 8 r 0 9 0 9 ; ; F [ ` h.p.) O.@.+.5.n.@.s.E.+Xb & r e e w q ",
"0 0 0 0 0 0 0 0 0 0 0 0 0 0 0 q = ).dX8X.Xt.2.n * 0 ; 9 8 u r 0 0 0 8 y 8 0 0 ; 8 , T _ ` =.8.] ) ) o.@.D.8.8.E. XB & 9 9 9 0 r ",
"0 0 0 0 0 0 0 0 0 0 0 0 0 0 0 0 . (.uXeX.Xy.2.j - 0 0 0 8 r 0 ; 0 0 8 y 0 0 ; 0 7 i T -.&._ [ [ 8.o.X.X.i.8.9.E..Xn & 8 0 p r q ",
"0 0 0 0 0 0 0 0 0 0 0 0 0 0 0 r 0 ).uXeX.Xa.1.k - 8 0 ; 8 8 8 ; 0 8 0 0 0 9 0 ; u & d V T <.:.=.=.O.O.] O.] 9.E.E.k : 0 8 - u 8 ",
"0 0 0 q 0 0 0 0 0 0 0 0 0 0 0 0 = (.9X8X Xd.T 1 1 0 0 8 8 8 0 8 0 0 r 8 9 0 ; 0 r - * 3 2 h A &.:.,.3.=.{ { 7.W. Xx : ; - - u < ",
"0 0 0 0 0 0 0 0 0 0 0 0 0 0 0 0 @ `.kXsX-XN.M ; 8 0 0 0 8 y r 9 0 0 0 0 9 ; y 0 q r - < 1 * 2 s V F :.>.=.=.0.}.[.k : 8 - y 0 ; ",
"0 0 0 0 0 0 0 0 0 0 0 0 0 0 0 0 7 Q Q.! U N ; 0 0 0 0 0 8 0 0 0 0 0 r 0 ; 9 ; 0 e u 8 8 0 7 - : o 3 k T <.2.q.[.oXc * r r 8 8 y ",
"0 0 0 0 0 0 0 0 0 0 0 0 0 0 0 r r 8 . @ * > - e 0 9 0 8 8 0 9 e 0 r 0 9 9 9 ; 0 q q 7 6 q q = & ; ; % % s N <.{.{.l = 9 r r 9 0 ",
"0 q 7 0 0 0 0 0 0 0 0 0 0 0 0 0 r w r r < > r 9 e r 0 0 8 0 r e r 0 0 y 9 9 1 0 q q 6 . 5 . $ $ $ 9 8 ; 1 o 4 v l + r e 9 r e 9 "
};
