/* XPM */
static char *DALL__E_2023_03_18_13_57_22___make_me_a_2D_door_as_a_32bit_image_removebg_preview__2_1679144806[] = {
/* columns rows colors chars-per-pixel */
"64 64 193 2 ",
"   c #1C0C00",
".  c #1E1003",
"X  c #1B1A16",
"o  c #1E1D19",
"O  c #211505",
"+  c #261E07",
"@  c #261C0B",
"#  c #2C1E0D",
"$  c #301F0F",
"%  c #341F04",
"&  c #261F12",
"*  c #2C1D12",
"=  c #201E1B",
"-  c #27210B",
";  c #2C210C",
":  c #332002",
">  c #36220E",
",  c #262113",
"<  c #2C2214",
"1  c #2F2914",
"2  c #23221E",
"3  c #2B221B",
"4  c #2A2A1D",
"5  c #332615",
"6  c #342914",
"7  c #3C2912",
"8  c #33261B",
"9  c #38271D",
"0  c #352A19",
"q  c #392B1B",
"w  c #271E21",
"e  c #1F2827",
"r  c #1B2B38",
"t  c #1C2E32",
"y  c #262522",
"u  c #292723",
"i  c #262A23",
"p  c #2A2925",
"a  c #232728",
"s  c #252B2A",
"d  c #2B2B2A",
"f  c #2C272D",
"g  c #312725",
"h  c #342C24",
"j  c #3C2F27",
"k  c #302729",
"l  c #312C2B",
"z  c #2C302F",
"x  c #2B3123",
"c  c #212D34",
"v  c #223030",
"b  c #432E1B",
"n  c #443A30",
"m  c #7D5526",
"M  c #75542E",
"N  c #785B2F",
"B  c #6F553C",
"V  c #775731",
"C  c #785630",
"Z  c #725835",
"A  c #7A5C34",
"S  c #7C5C3B",
"D  c #7B5E40",
"F  c #805A35",
"G  c #815A39",
"H  c #9D6C2D",
"J  c #9C702D",
"K  c #84653C",
"L  c #8A673B",
"P  c #826A3C",
"I  c #886839",
"U  c #8A6531",
"Y  c #956C33",
"T  c #9C6D35",
"R  c #9C6D3D",
"E  c #916B3A",
"W  c #977035",
"Q  c #9A7237",
"!  c #9C723B",
"~  c #A16E2E",
"^  c #A1702D",
"/  c #A36E35",
"(  c #A36E38",
")  c #A57136",
"_  c #A97337",
"`  c #A97937",
"'  c #A3743B",
"]  c #A5793B",
"[  c #A8743A",
"{  c #856642",
"}  c #896642",
"|  c #856942",
" . c #8D6C49",
".. c #9A6F43",
"X. c #9B7344",
"o. c #977944",
"O. c #9B7945",
"+. c #9B7549",
"@. c #97784A",
"#. c #9A794B",
"$. c #967650",
"%. c #987754",
"&. c #9B7954",
"*. c #A17946",
"=. c #A97B41",
"-. c #A1774A",
";. c #A47C4B",
":. c #AA7D4B",
">. c #B67E41",
",. c #BA7F43",
"<. c #A47E50",
"1. c #AA7D53",
"2. c #AC8246",
"3. c #A5804C",
"4. c #AC814D",
"5. c #B38444",
"6. c #BC8444",
"7. c #B78A46",
"8. c #BA8846",
"9. c #B4864B",
"0. c #BA854B",
"q. c #B68A4C",
"w. c #BC8B4C",
"e. c #BF924F",
"r. c #A48155",
"t. c #A98352",
"y. c #A78559",
"u. c #AA855C",
"i. c #AC8A5D",
"p. c #B68C52",
"a. c #BC8D53",
"s. c #B68B58",
"d. c #BC8E5A",
"f. c #BD9153",
"g. c #BE9259",
"h. c #A68566",
"j. c #A98666",
"k. c #AE8D61",
"l. c #A08568",
"z. c #AD8D69",
"x. c #B08F62",
"c. c #C1864E",
"v. c #C28D4D",
"b. c #C3914D",
"n. c #C28E54",
"m. c #C28F59",
"M. c #C88F5A",
"N. c #C39355",
"B. c #C89455",
"V. c #C49A56",
"C. c #CC9B56",
"Z. c #C2935B",
"A. c #CB965C",
"S. c #C59A5D",
"D. c #CC9B5C",
"F. c #D29C57",
"G. c #D2975D",
"H. c #D29C5C",
"J. c #CBA157",
"K. c #CAA05A",
"L. c #D0A056",
"P. c #D3A25D",
"I. c #C39660",
"U. c #C59B62",
"Y. c #CB9C62",
"T. c #C79F6B",
"R. c #CA9D69",
"E. c #D39E63",
"W. c #CDA265",
"Q. c #C6A169",
"!. c #CEA36A",
"~. c #D3A464",
"^. c #D9A565",
"/. c #D5A965",
"(. c #D9A866",
"). c #D4A56B",
"_. c #D9A66B",
"`. c #D6A96C",
"'. c #DAAA6C",
"]. c #DAB26F",
"[. c #D4A672",
"{. c #D9A772",
"}. c #D6AB72",
"|. c #DAAC73",
" X c #D4A778",
".X c #D9AE7A",
"XX c #DCB275",
"oX c #DEB379",
"OX c #E0AE71",
"+X c #E2B276",
"@X c #E0B976",
"#X c #E2B47A",
"$X c #E0B87C",
/* pixels */
"p p p p p p p p p p p p p p p p x i u 3 d d d 3 p l p i 4 4 d f k k p i s s p p u x d a u g p i p p p p p p p p p p p p p p p p ",
"p p p p p p p p p p p p p p p p a d p h i d d p p p i i 4 4 p y w y 3 u s i u p u 4 s d l p d a p p i p p d p p p p d p p p p p ",
"p p p p p p p p p p p p p p p s s e y l d i i l h d s x x p u y = = u d s d d h x i z z p p d a i p p p p p i y p p d p p p p p ",
"p p p p p p p p p p p p p p p p z y n @ + ; < @ * & , , - + O .   . @ # , & # ; ; - , , * 3 y z d p p p p i 2 o 2 u p p u p h p ",
"p p p p p p p p p p p p p p p p 3 q l. .A A G G G G S S A A V M M V A A D S S F N V A Z S B 9 8 p p p d u i 2 X o 3 p p p d p u ",
"p p p p p p p p p p p p p p p u j > &.t.3.4.:.1.:.1.1.1.:.2.3.3.:.:.4.1.y.1.1.:.4.2.3.;.u.j.b < p p p p p u 2 o 2 p p p p d i u ",
"p p p p p p p p p p p p p p p p 3 5 &.E E W Y Y ( ......Q Q Q ! Q ! R R ....( T ! W Y U L h.9 g p p p p p p u 3 p p p d d p p p ",
"p p p p p p p p p p p p p p p p d 0 $.! Q.W.|.).{. X{. X}.`.[.`.}.).). X X X{._.`.!.[.d.X.z.9 u h u p p p p d p p u 4 p p p p p ",
"p p p p p p p u p p p p p p p p p 8 $.! V.~.)._.[.{.).).`.)./.`././.~.|.[.).).~.~.~.~.g.X.j.5 y p p p p p p p p p p p p p p p p ",
"p u u p p p p p p p p p p p p p p 8 &.' V.~.E.).E.'.{.`.'.`./.K.~.W.~.).[.!._.~.^.~./.f.' z.* y d p p p p p p p p p p p p p p p ",
"p p p p p p p p p p p p p p p k d 1 #.] S.~.~.'.).).).S.n.2.q.q.q.5.0.a.Y.`./.P.).~.W.Z.X.z.8 a p p p p p p p p p p p p p p p p ",
"d p p p p p p p p p p p p p p p s 1 @.] V.P.[.).OXZ.q.q.w.8.).`.`.S.n.0.9.q.V.].`.).~.f.' x.h d d p p p p p p p p p p p p p p p ",
"p u y y p u p p p p p p p p p p d 6 O.` B.~.}.[.a.q.N.~.~.n.W.).~.N.n._.Y.a.2.e.).`.).m.) k.q i u p p p p p p p p p p p p p p p ",
"y = 2 2 p p p p p p p p p p p p u 5 O.` C.).[.I.>.S.].XX~.a.).|.|.Y.n.'.XX'.J.2.S.}.'.N.' k.q y p p p p p p p p p p p p p p p p ",
"2 o X o y p p p p p p p p p p p i 5 o.` A.). Xs.K.XX@XXXW.a.!. X[.Y.m.).XX].].f.d. X}.Z.' k.0 i p p p p p p p p p p p p p p p p ",
"2 X X o y p p p p p p p p p p p i 0 o.] A.`. Xs.g.].XXXX).g.T..X.XI.m.[.oX`.XXg.s..X|.m.' k.0 p p p p p p p p p p p p p p p p p ",
"2 2 2 2 y p p p p p p p p p p p p 8 +.' U.).[.a.U.oXXXoX).d.!.}.XXI.m.{.XX}.oXg.s.|.|.m.' x.q u p p p p p p p p p p p p p p p p ",
"p y y u p p p p p p p p p p p p p 8 +.' Y.}.).a.Q.oXoX#X).d.!.}.|.I.m.{.oX`.#Xg.a.|.{.m.' x.q u p p p p p p p p p p p p p p p p ",
"p p p i p p p p p p p p p p p p p 8 +.' Y.[.'.a.U.oXoX#X[.d.[.XXXXS.m.{.oX}.#Xg.a.|.{.Z.[ x.0 p p p p i p p p p p p p p p p p p ",
"p u u p p p p p p p p p p p p p p 5 +.' Y.[.'.a.U.$X#X#X!.d.[.|.}.S.Z.|.oX}.#Xg.a..X|.g.*.x.0 p p p p p p p p p p p p p p p p p ",
"p p p p p p p p p p p p p p p p p 5 +.' Y.|.'.a.K.oXoX@X[.d.[.XX}.S.Z.|.#X}.#XZ.a.XX|.Z.' k.0 p p p p p p p p p p p p p p p p p ",
"p p p p p p p p p p p u p p p p p 5 @.' R.|.{.a.Q.oXoXoX[.g.!.XXXXS.m.{.oX}.#Xg.s.|.|.g.' k.q p p p p p p p p p p p p p p p p p ",
"p p p p p p p u p p p p p p p p p 5 +.' Y.|.'.a.S.oX#X#X[.s.!.XX|.Y.Z.{..X|.#XZ.a.|..Xm.[ k.0 p p p p p p p p p p p p p p p p p ",
"p p p p p p p p p p p p p p p p p 5 +.' Y.}.'.a.S.oXoX#X).d.).}.XXY.I.{.oX}.#XZ.a..X|.Z.*.s.q u p p p p p p p p p p p p p p p p ",
"p p p p p p p p p p p p p p p p p 5 X.' Y.|.|.a.S.$XoX@X).d.!.XXXXI.I.|.+X|.#XZ.a..XOXZ.=.j.0 p p p p p p p p p p p p p p p p p ",
"p p p p p p p p p p p p p p p p p 5 @.' Y.|.|.a.S.oX#X#X[.g.).oXXXU.m.|.+X[.oXS.a..X|.Z.' i.0 p p p a p p p p p p p p p p p p p ",
"p p p p p p p p p p p p p p p p p 5 X.' Y.|.|.a.S.@X#X#X[.g.!.XXXXU.Z.{.oX}.#Xg.a.|..XZ.' i.9 u p p p p p p p p p p p p p p p p ",
"p p p p p p p p p p p p p p p p p 5 X.! Y.'.|.n.U.@XXX#X[.g.).oXXXD.Z.|..X}.#XI.d.|.|.Z.' k.6 p p p p p p p p p p p p p p p p p ",
"p p p p p p p p p p p p p p p p p 5 @.' Y.`.'.a.S.oXoX#X).g.).oX|.Y.m.{.#X|.#Xg.a..X|.Z.' i.9 p p p p p p p p p p a p p p p p p ",
"p p p p p p p p p p p p p p p p p 5 X.' Y.`.|.a.Q.oX+X@X).g.!.XXXXY.I.|.#X}.oXS.g.|.|.Z.[ i.6 p p p p p p p p p p p p p p p p p ",
"p p p p p p p p p p p p p p p p p 6 +.) Y.`.|.a.S.oXXX#X[.g.).XXXXS.Z.{.oX}.#Xg.d.}.{.Z.' k.5 p p p p p p p p p p p p p p p p p ",
"p p p p p p p p p p p p p p p p p 5 +.' Y.[.`.a.S.oXXX@X).d.!.|.|.Y.Z.{.XX}.oXg.a.|.[.Z.' u.9 p p p p p p p p p p p p p p p p p ",
"p p p p p p p p p p p p p p p p u 5 -.' Y.'.).a.Y.#XOX+X`.g.).|.XXS.m.|.|.|.oXf.g.`.g.S.=.y.< d p p p p p p p p p p p p p p p p ",
"p p p p p p p p p p p p p p p p p 5 +./ S.`.`.a.S.#X+X#X).p.W.'.|.S.N.{.|.'.XXg.a.W.Y I.T y.q a p p p p p p p p p p p p p p p p ",
"p p p p p p p p p p p p p p p i p ; X.( I.).|.a.D.#X+X+X!.s.).+X].S.Z.|.XX].`.p.9.a.=.I.*.<.9 d p p p p p p p p p p p p p p p p ",
"p p p p p p p p p p p p p p p p i ; ..' Y.`.'.q.S.+X+X+X!.f.W.'.'.S.a.).'.].].g.f.).:.S.=.<.8 u p p p p p p p p p p p p p p p p ",
"p p p p p p p p p p p p p p p p d < -.[ S.).).f.0.a.8.0.9.p.Y.|.'.Z.9.a.q.q.a.2.a.Y.9.Z.=.t.5 s p p p p p p p p p p p p p p p p ",
"p d p p p p p p p p p p p p p p p 5 X.' S.).'.U.Y.).~.).!.R.`.).'.).Y.~.Y.D.!.!.a.5.p.S.] u.1 d p p p p p p p p p p p p p p p p ",
"p p p p p p p p p p p p p p p i u 6 -.) S.).|.~.'.`.)._.`.}.`.~.~.).).`.!./.!./.).E.' S.T y.q y p p p p p p p p p p p p p p p p ",
"p p p p p p p p p p p p p p p p i 6 -.( S.~.'.).`.~._.).).[.`.~././.).~././.!.W.~.).g.s.] r.q d p p p p p p p p p p p p p p p p ",
"p p p p p p p p p p p p p p p p i 6 X.) A.).|.K.K.E.D.D.Y.Y.S.D.S.D.U.~.A.D.S.D.S.'.).Z.[ t.5 p p p p p p p p p p p p p p p p p ",
"p p p p p p p p p p p p p p p p d 6 *.) S.).).N.q.w.n.w.a.p.N.S.S.w.9.n.a.b.f.q.N._.).N.' r.5 i p p k p p p p p p p p p p p p p ",
"p p p p p p p p p p p p p p p p u 6 *._ S.`.~.8.S.'._.^.U.f.W.'.'.A.Z.).)._.~.N.v.).).Z.) r.0 p p p p a p p p p p p p p p p p p ",
"p p p p p p p p p p p p p p p p i 7 -._ A.`.`.e.B.OXOXOXY.a.E.`.'.N.a._.'.'./.e.w._.).N.' 3.0 u p p p p p p p p p p p p p p p p ",
"p p p p p p p p p p p p p p p p u 6 ;./ N.~.).w.N.].(.OXW.q.~.`./.N.a.'.^._.`.w.n._.'.m.' <.0 u p p p p p p p p p p p p p p p p ",
"p p p p p p p p p p p p p p p p u 5 :._ N.)./.w.A.+XOXOXD.w.D.~.`.V.n.'.^._.`.w.v._.E.Z.' -.0 p p p p p p p p p p p p p p p p p ",
"p p u p p p p p p p p p p p p p u 1 ;._ N.~.`.w.N.'.(.'.U.a.E.(./.V.a.^.^.(.'.w.w._.E.M.( #.6 p p p p p p p p p p p p p p p p p ",
"p p p p p p p p p p p p p p p p x > -.) n.~._.q.N.(.'.'.D.q.D.(.~.S.v.)._.(.`.w.w._.^.I.' +.6 p p p p p p p p p p p p p p p p p ",
"d u u p p p p p p p u p p p u p u 7 -./ N.)._.w.N.'././.Y.0.~.~.^.m.n.)./././.w.v._.E.A.( +.6 p p p p p p p p p p p p p p p p p ",
"p u u p p p p p p p p p p p p p u 6 ;.( M.E.^.8.f.`./.(.D.5.H.^._.N.n.^.P./.K.7.v.^.E.M./ -.0 p y p p p p p p u p p p p p p p p ",
"p p i d p p p p p p p p p p p p i 6 *.^ n.^.^.6.e./.(.P.D.6.H.P.^.b.v.~././.~.8.8.^.E.B./ O.6 x p p p p u p p u p p p p p p p p ",
"p p p p p y p p p p p p p p p i 4 6 O.^ v.P.H.c.e./.P./.S.8.D.P.P.b.8.~.W./.~.w.8.^.P.B.J ! 6 i p p p p p i y p p p p p p p p p ",
"p p p p 2 2 2 2 y y p p p p p p s 6 O.J b.P.L.6.f./.^.).Y.0.D.~.P.b.v.~.).).Y.9.w.~.~.b.J o.1 i p p u p u = o u p p p p p p p p ",
"p p u y 2 X X o y p p p u p p p i 5 @.J e.H.L.6.e.W.{.E.Y.9.A.~.P.V.a.~.).).R.0.w.~.H.N.J o.6 i p u p d y = 2 y p p p p p p p p ",
"p p p y o X X X y p p p p p p p d 5 O.^ b.F.F.c.e.S.H.Y.M.,.I.P.L.b.0.G.A.G.G.v.c.^.H.b.H ! 9 p p p p p u 4 y p p p p p p p p p ",
"p p p p 2 o o 2 y u p p p p p d d 5 X.H b.F.F.6.6.8.0.,.c.,.G.P.F.v.,.c.6.c.c.` c.H.F.b.~ X.9 f a p p p u d p u p p p p p p p p ",
"p p p y y 2 2 y p p p p p p p p p 9 X.~ v.H.F.F.D.H.H.H.E.H.P.P.L.H.Y.G.G.G.G.C.F.C.F.v.~ X.9 k d p p p p p p p p p p p p p p p ",
"p p p p p p p p p p p p p p p p k 6 X.H 0.D.H.P.P.E.H.H.H.D.H.J.C.D.H.G.C.A.C.C.C.C.F.8.H X.g k p p p p p p p p p p p p p p p p ",
"p p p p p p d p p p p p p p p p g > X./ v.D.H.H.H.D.H.H.H.D.J.J.J.K.D.H.C.J.F.C.V.V.D.w.T ..5 k p p p a p p p p p p p p p p p p ",
"p p p p p p p p p p p p p p p p 4 > R H q.S.U.D.Q.D.D.D.D.Y.D.K.K.U.Y.A.C.V.C.B.J.A.Z.0.H ..> g p p p p p p p p p p p p p p p p ",
"p p p p p p p p p p p p p p p p 8 7 R ' d.I.T.R.Q.W.K.W.R.R.U.Q.Q.T.R.Y.D.S.Q.S.Q.Q.S.a.! ! 7 8 g p p p p p p p p p p p p p p p ",
"p p p p p p p p p p p p p p p p u 0 M m K { { { P P I I L } | | | { } } I I P P D { K K m M q u p p p p p p p p p p p p p p p p ",
"u p p p p p p p p p p p p p p p c a 6 % # & * < - - ; % $ * < 3 3 * * * ; - ; - 3 3 & < : 6 y s p p p p p p p p u p p p p p p p ",
"p p p p p k p p p p p p p p p s r c 8 0 p k d s x i 4 4 p d f s d d k h 4 u d d d f l h 6 1 c t s p p p p p p p p p p p p p p p "
};
