/* XPM */
static char *_97a3bca4a5e4542ff9188eaee43e3edTj0wR5H3tHNMRAX1[] = {
/* columns rows colors chars-per-pixel */
"64 64 233 2 ",
"   c #0C150E",
".  c #041C0C",
"X  c #0A1A0E",
"o  c #011A0A",
"O  c #1A160C",
"+  c #191B09",
"@  c #0B1613",
"#  c #061C13",
"$  c #0C1C14",
"%  c #0D161C",
"&  c #051D19",
"*  c #0C1B1B",
"=  c #071714",
"-  c #121614",
";  c #121B16",
":  c #1B1A16",
">  c #14161C",
",  c #1A151C",
"<  c #131B1C",
"1  c #1B1C1C",
"2  c #191410",
"3  c #231D1B",
"4  c #221819",
"5  c #311F13",
"6  c #2C1E0E",
"7  c #04230D",
"8  c #042B0E",
"9  c #06250B",
"0  c #1B250F",
"q  c #07330E",
"w  c #042312",
"e  c #0B2314",
"r  c #052C11",
"t  c #0A2B15",
"y  c #0C231B",
"u  c #0D2B1B",
"i  c #062419",
"p  c #112115",
"a  c #112A16",
"s  c #13231C",
"d  c #1B211D",
"f  c #142B1C",
"g  c #1B2D1D",
"h  c #0B3C15",
"j  c #0A3617",
"k  c #11341B",
"l  c #13391E",
"z  c #123316",
"x  c #22221D",
"c  c #262A1C",
"v  c #292B1E",
"b  c #282518",
"n  c #38271A",
"m  c #0E1621",
"M  c #0E1A22",
"N  c #141623",
"B  c #1A1323",
"V  c #131A23",
"C  c #1C1D22",
"Z  c #131929",
"A  c #231D24",
"S  c #211521",
"D  c #0D2321",
"F  c #142223",
"G  c #1C2224",
"H  c #142C22",
"J  c #1D2A24",
"K  c #162A2B",
"L  c #133322",
"P  c #1A3B26",
"I  c #252523",
"U  c #2B2625",
"Y  c #252A24",
"T  c #2A2925",
"R  c #262729",
"E  c #2B262B",
"W  c #252B2B",
"Q  c #2B292A",
"!  c #312624",
"~  c #322923",
"^  c #30272A",
"/  c #372E29",
"(  c #22392C",
")  c #2C332B",
"_  c #252E31",
"`  c #2D2B31",
"'  c #322630",
"]  c #213631",
"[  c #2D3334",
"{  c #2B3B34",
"}  c #333532",
"|  c #3A3639",
" . c #4C2F0F",
".. c #522E0E",
"X. c #51330D",
"o. c #452E1D",
"O. c #4E3018",
"+. c #533617",
"@. c #6A3D17",
"#. c #49382B",
"$. c #593A24",
"%. c #6C3F20",
"&. c #13441C",
"*. c #19481C",
"=. c #1A4423",
"-. c #1B492A",
";. c #184823",
":. c #1E5329",
">. c #1D4930",
",. c #1E5B31",
"<. c #24442D",
"1. c #234B2C",
"2. c #274725",
"3. c #23522D",
"4. c #235F29",
"5. c #254332",
"6. c #294535",
"7. c #254C33",
"8. c #2A4C34",
"9. c #2A493A",
"0. c #255332",
"q. c #2A5334",
"w. c #295C35",
"e. c #2B543B",
"r. c #2F5839",
"t. c #27503E",
"y. c #32533B",
"u. c #315A38",
"i. c #324630",
"p. c #2B6738",
"a. c #376C3C",
"s. c #31603E",
"d. c #2D723C",
"f. c #34713D",
"g. c #594415",
"h. c #585A1B",
"j. c #644414",
"k. c #6B4216",
"l. c #624911",
"z. c #664819",
"x. c #74411C",
"c. c #5D5324",
"v. c #5F5F28",
"b. c #684126",
"n. c #635B2C",
"m. c #4C683E",
"M. c #64632D",
"N. c #2C4542",
"B. c #2A5543",
"V. c #375A47",
"C. c #2F6C44",
"Z. c #356543",
"A. c #3A6445",
"S. c #3B6C45",
"D. c #3D644A",
"F. c #346E4A",
"G. c #3C6C49",
"H. c #356E41",
"J. c #357242",
"K. c #397545",
"L. c #3A7A43",
"P. c #3B7449",
"I. c #3C7949",
"U. c #377848",
"Y. c #3E7150",
"T. c #42664D",
"R. c #426B48",
"E. c #407A43",
"W. c #43754B",
"Q. c #417B4D",
"!. c #4B7F4F",
"~. c #436351",
"^. c #476B58",
"/. c #4B7259",
"(. c #4B7C59",
"). c #457753",
"_. c #5A7E50",
"`. c #3F834A",
"'. c #3C8547",
"]. c #3E9C4C",
"[. c #3E9E53",
"{. c #3B8353",
"}. c #3DA146",
"|. c #3EA14E",
" X c #42844C",
".X c #448D4E",
"XX c #488A48",
"oX c #578D49",
"OX c #58884B",
"+X c #45954B",
"@X c #49964E",
"#X c #449D4E",
"$X c #499B4E",
"%X c #509D4F",
"&X c #458452",
"*X c #4B8356",
"=X c #468B52",
"-X c #4B8D55",
";X c #4C845A",
":X c #4C8D5A",
">X c #53845D",
",X c #538D5D",
"<X c #5B8D55",
"1X c #469454",
"2X c #4C9454",
"3X c #459C53",
"4X c #4A9B53",
"5X c #4C945B",
"6X c #459C5A",
"7X c #4B9B5A",
"8X c #479758",
"9X c #519455",
"0X c #519A54",
"qX c #52935C",
"wX c #519B5B",
"eX c #5A9157",
"rX c #628751",
"tX c #42A14D",
"yX c #47A04B",
"uX c #45A153",
"iX c #49A054",
"pX c #45A05B",
"aX c #4C8E60",
"sX c #538C63",
"dX c #5A8B65",
"fX c #5A8B68",
"gX c #548464",
"hX c #4E9362",
"jX c #4B9A61",
"kX c #549362",
"lX c #519961",
"zX c #5A9A64",
"xX c #589368",
/* pixels */
"T T T T T T T T T T T T T T T R R Q W p ; < % Z Z Z Z N N > B > < ; : > % M y * < G T T T T ! ! T T T T T T T T T T T Y T T T T ",
"T T T T T T T T T R T T T T T T Q Q Q - ; 1 V V M m m N N > > > ; - < % % M * % > I R T I T ! T T T T T T T T T T Q T U T T T T ",
"T T T T T T T T T T T T T T T T U ^ | C < % * % * * = * * * * < % * < M Z Z m V > A R Q Y Y Y v U U U U T T U v U U T T U T T T ",
"T T T T T T T T T T T T T T T U T ^ | 1 > < $ 5.8.8.7.7.7.7.7.8.8.t.9.N.N.K % , B S E E R Y ) U Y T T T T I x d x U Y T T T T T ",
"T T T T T T T T T T U R T T T U T ^ Q N N y u R.;X2X1X1X1X1X1X1X2X1X5XsXgX6.< : : A R R T T T E T T T T T U 3 2 x x T T T T T T ",
"T T T T T T T T T T T T T T T T U ) E G * $ e ).zXwX4XuX#X#XyX$X3X$X6X7XsX1.X ; > A T T T Q E R T T T Q T U x x x U T T T T T U ",
"T T T T T T T T T T T T T T T T Y Y K G > % f T.>X X-X7X8X3X@X$X4X$X$X3X9X1.X < > G Y Y T T E E T T T T Y T T U x U T T T T T U ",
"T T T T T T T T T T T T T T T T T R E W G 1 1 P ( *.p.1X7X3X0X$X$X$XyX2XqX1.$ ; < G Y Y Y U U E Q T T T Y T T T T T T Y U T T Y ",
"T T R T T T T T T T T T T T T T T T Q T Q E S > $ w ;.hX7X8X3X$X$X$X4X7XdX8.  : V 1 Y Q v 3 5 U T T T T T T T T T T T T T T T T ",
"T T U T T T T T T T T T T T T T T U T T E E S S % & -.:X7X3X#X#X$X7X8XzXfX5.  : 1 A I Q U 3 3 b T T T T T T T T T T T T T T T T ",
"T T T T T T T T T T T T T T T E ^ T U Y U E A 4 > # 1.:X7X4XyXtX+X].C.F.D.] d   d I Q ` R I c v U T T T T T T T T T T T T T T T ",
"Q T T T T T T T T T T T T T T U ^ T Y Y T Q A , 1 X -.,X1X#X#X#X1X'.q 8 u f } Y Y R W ` Q U v v U T T T T T T T T T T T T T T T ",
"T U x U T T T T T T T T T T T U U ! Q Y Y W G 2 - o 2.:XlX6X6X4X6XP.q X < < { W W Q Q Q Q T v v Y Y U Y T T T T T Q T T T T T T ",
"x x 3 x I T T T T T T T T T T U ! ! ) J J Y x 4 6 + 2._.eXOXeXeXrXR.0 O O 3 ) Y W W Q T ! T T T U U T T T T T T T T T T T T T T ",
"x : : x T T T T T T T T T T T T ! ! Y W _ Y 3 o.O. .g.n.M.v.v.v.n.c.X...+.$.#.Y Y T T ~ T T Q Q T T T T T T T T T T T T T T T T ",
"x : : : I T T T T T T T T T T ! ! U Y W Q b n b.b.@.@.k.l.l.j.l.z.j.@.@.@.$.~ T U Y v v v T Q E Q T T T T T T T T T T T T T T T ",
"I x x x c T T T U T T T T T T T T T v v U b 5 %.@.x.k.j.l.l.k.@.j.z.k.@.%.+.o.v T T ! v ! T ` Q Q T T T T T T T T T T T T T T T ",
"T T Y Y T T T T R T T T U T T T Q Q T v ~ n 5 o.O.+.+.c.h.h.n.n.c.c.+.+.$.$./ T Y U T T ! U Q T T T T T R T T T T T T T T T T T ",
"T ) Y Y T T T T T T T T T T U T Q ` U c U E A : 2 0 2.OXoXoXoXOXrXm.0 + 2 3 Y Y Y Y T T ~ U v T T T T T T T T T T T T T T T T T ",
"T T T U Y T T T T T T T T T U T ` ` U U Y _ K * * = -.5X4X$X#X2X9XR.t & m C _ W ( Y Q Q U T v Y T T T T T T T T T T T T T T T T ",
"T T ) T T T Q T T T T T T T T Q ) T v Y ) _ V D y w -.:X@X$X0XwX9XJ.r w M F _ _ Y I R T Q Q Y Y T T T T T T T T T T T T T T T T ",
"T T T T T T T T T T T T T T T T T U x x < s D N.V.V.U.7X@XyX2X+X4X=Xp.Z.V.] F V x x Q T T Q R W T T T T T T T T T T T T T T T T ",
"T T T T T T T T T T T T T R T T U T Q C % & H /.xXqX1XpX$XuXpXuX7X4X5XqX<X6.e % 1 A / Q U Q E ` Q T T T T T T T T T T T T R T U ",
"T Y T T T T T T T T T T T T Q T Y T Q < y i w W.eX7X3X[.uX[.[.[.3X$X$X9XeX;.7 $ > I } Q U Q R Q T T T T T T T T T T T T T T T T ",
"T T T T T T T T T T T T Q T Q I x : 1 F P L *.m.yX$XyXyX4XiX6X3XuX$X+X7X@X4.q z ( * 1 1 1 U c U T T T T T T T T T T T T U T T T ",
"T T T T T T T U T T T T Q I R I 1 * < 6./.>X X9X%XyX#X#X@X4X$XuXuX3X].].4X.X X>XD.y @ ; d ) c v U T T T T T T T T T T T T T T T ",
"T T T T T T T T T T T T Y Q R C % * $ 8.,XwX2X$X#X#X#X#X0X2X].|.3XpX6X6XuX7XwXkX).L * V 1 Y c v U U T T T T T T T T T T T T T T ",
"Q Q T T T v T T T T T T Q Q W C % M & 1.-X4X$X3X8XpX6X+X9X-X3X3X6X3XuX3X#X3X8X:XY.u M V B Q T v Y U T T T T T T T T T T T T T T ",
"T Q T T T U T T T ~ ) T Q T R C Z M & 7.5X3X4X6X6XjX{.,.w.w.`.6X6X[.3XuXtXtX6XlXY.u % S S E E E U T T T T T T T T T T T T T T T ",
"T T T T U Y v T U T T T Q Q Q C N M & >.8X3XiX3XjXhXC.8 7 t J.5X6XuXuXyX#X#X8X8X).u $ 1 4 ' ' W T T T T T T T T T T T T T R T T ",
"Q T T T U T T T U T Y T Q I R C > ; * -.5XuXyXyX7XkXK.8 $ e P.wX8X8X4X$X+X$XiX7XK.j @ ; 4 } [ J Q T T T T T T T T T T T T T T T ",
"T T Q T Y Y T T Y T U Y I C C ; s f L 3.1X3X+XXXXX(.V.e < < A.(.=X=X@X@XiX4X3X5XL.h z g < C * G Y Y T T T E R T T T U T T T T T ",
"U T T Q T Y T T T v v x 1 N % s R.!.!.{.3X4X-X;.l f H < > V H L k :.5X7X6X3X4X@X+X'. X).5.% V , x Y Q Q Q Q R T T T T ~ U T T Y ",
"U T E Q U U T T T T T ) C > % s W.7X1X1XiX4X,X=.7 # * > B V * & w =.:X7X8X4X2X0XyX#X$X:X1.# % 1 d T Q Q W Q T R T ! T ~ U T Q Q ",
"v Y T Q Y T T Q T c Y T V N m s Q.7X[.6XjX5X>X=.w e < > B B $ 7 9 &.1X4X4X7X4X4X$XtX4X-X3.7 w $ G T W Q Q Q Q Q U T T T T T Y Q ",
"v T T T T T T T Q Q T ` > V N u K.7X6X'.p.p.Z.y.7.q.{ < B N ( 7.w.p.8X4X$X3X3X4X$X3X8X2XH.0.q.5.s C C C T T T T ! T ! T T T T T ",
"T T T T T T U Q T T Q } M M * u K.7X@Xf.q t k R.sXsXD.% % D F.hX:X-X3XyXuXuX6X3X4XuX4X7X5X:X:XR.s > > 1 T T Q T T T T T T T Y T ",
"T T T T T T T ! ` Q Q ` C * = u L.0X9Xa.9 X e ).xXxX^.D M u F.jXxXqX#XtXtXtX4X3X6X4X6X3X6XwXlXQ.f , N < Q Q T T T T T Q T T Y Y ",
"! T T T T T E ^ R 1 < s y F u h  X2X0Xa.# * f ^.(.aXV.M & H Z.*X*X5X8X#X].|.6X7X8X4XuX].uX#X4XI.s N > : Q Y T T T T Q T T T T T ",
"T T T T T T T T R 1 ; s 6.^.(.).1X2X5XZ.f % * K u >.K M * * L l l 4.+X3XtXyX$X7X4X6X3X|.uX#X$XQ.u % < 1 Q Y T T T Q Q T T T T v ",
"Q U ~ T T v U T R 1 $ e q.dXdXqXwX2XjXC.i * < $ # y * Z % % - $ 9 &.-X8X4XiX#X4X3X4X#XtX#X#X4XK.u & * ; ) ) T T Q Q T R T T T T ",
"E ^ T T T T T T Y 1 = e 3.,XwX8X3X8XjXJ.i o X $ . = m m C < 1 @ 7 =.>XzX0X7X4X4X$X3X#XtX#X#X8X'.r . X p { Q T Q T R Q Q T T T T ",
"^ ^ T T Y Y T T Y 1 # w 3.qX7X3X4X$X4XI.0.1.2.3.1.7.] * = $ ( 6.1.q.A.S.a.XX4X#X#XtX#X#X$X$X6X&X,.>.<.f d ; 1 T T Q T Y U T U ~ ",
"E Q T T T U U T T 1 * w 3.2X4X#XtX].8X9X,XeXqXqXsXdXT.s $ e T.fXfXG.f 7 8 H.4XuXtXyX#X2X$X$X7X1XhXdXdX8.p   G Q Q T T T U T T T ",
"Q Q v v v T T T R V < w 3.2X$XtX}.}.yX2X9X2X#X#XiXqXT.e   t P.kXkXG.u # t S.7X#XuX].#X4X$X$X4X6X5XkXdXq.# $ 1 I ! T T T Y T T T ",
"Q T v v Y T T ! ' C % y 3.9X4XtX}.tXiX8X7X+XyXyXtX7XS.e < f J.8X8XK.t $ # R.lXiXtXuX$X$X$X$X$X8X4X8X,Xq.e ; I E Q U v T T T T Q ",
"Q Y v v v T T ! E S N * 3.,X7X$XyX4X7X1X6X#X$X#X#X7XZ.y % y J.4X5XJ.u & y T.kX4X#X#XuX$X#X$X#X3XiX4XqX3.w = N ` Q U T v T T Q Q ",
"Q T v v v Y T ^ E C > y 7.eX4X4X$X2X6X7XpX3X4X#X$XwXA.D m F K.8XwXJ.t # e T.qX8X#XuX$X3X#X4X#X3X#X7XqX3.w < 1 E ^ T v T T T Q R ",
"Y T U v Y U T Q ` S ; $ 7.,XwX4X$X4X7X3X5X7X4X3X4XwXT.< N D K.2XzXP.8 7 9 R.9X4XtX|.tX3X3X4X$X$X$X4X,Xq.# < 1 ` E R T T Y T T T ",
"U T U U U T T Q ` A * e 3.eX2X4XiX4X4X.XI.P.K.K.f.W.V.V N C y.I.G.u.1.=.*.E.0X6XtXtX3X3X$XyX$X$X$X4X,X0.& < 1 E E T Q Y T T T T ",
"! T Y U T Y U ^ E C * w 3.qX4X$X3X4X+Xd.j a s p t a f % Z N e t j -.(.;X-X5XwX1X7X3X3XtXtX3X3X3XuX4XqX0.w < 1 Q Q T T Q T T T T ",
"T T T Y T T U Q E C * 9 3.5X4XtX3X7X8Xa.7 X ; , ;   % m B V * e o =.:X5X6X6XpX7X4X8X3X#XtX3X6X3X$X4X5X0.w $ < Q T T Q T T T T ! ",
"^ U T U x x 3 I T d $ 9 3.5X4X$X3X3X1Xd.8 w < % p p 1 N N N & w 8 2.=X6XpX3X6X1X9X0X$XyXtX3X6X3XtX3X5X0.w $ 1 T T T Y Q Q Q T U ",
"^ T T I x : 1 3 I d # 7 :.5X8X3XiX3X4X.Xp.G.G.A.A.A.9.F m V 9.D.a.I.1X7X[.uX3X4X2X$X$X3X#XtX3X3X3X4X5X0.w $ : Y U U Q T R T T ! ",
"Q Q T I x : : 4 A : $ 7 3.kX7X8X4X$XiX4X8X7X6X6X5XkXT.y = u G.kX0X2X8X4X#X#XtXyX#X#XtXtX#X$X$X$X4X7XsX0.w $ : Y Y U T Q Q T Q T ",
"Q U T U x : 4 3 I I ; e 8.dXxXwX4X$X$X3X4X6X|.tX3X7XG.7 # r K.1X4X3X3X4X$X#XyX}.yXtXtX3X$X4X$X$X4XkXfXe.w * 1 Y T T T Q R T T T ",
"T T T T U x U U E A % $ 6./.(.).@X0X8X4X4X$X#X$XyX1XI.&.j &.f.0XyXuX4X4X2X7X$XtX|.|.3XpX4X8X7X.X&X(./.6.F ; 1 ! T T T Q T Y T U ",
"Y T Y Y U I U T E I I < s f j &. X@X$X$X4X$X2X$X7X8X7X{.&X-X0X@X3X[.4X2X4X2X3X#X[.|.[.6X8X4X4X'.j j H * > 1 1 T T ~ T Q Q T Y Y ",
"T T Y Y U U ^ ~ E E Q R s = o t L.@XiX4X4X7XwX7X4X4X8X4X0X4X9X2X3X6XyX4X4X$X3XuX3XpXiX$X@XwX2XI.r # % s W ` T T ~ T ~ T T T Y v ",
"T T U v U Y T ^ E E E Q I < < e E.-X9X1X1X:XqXaXkX5X2XwX2X-X9XkX1X2X9X2X9X-X5X5X:XqX2X2X9X9X:XW.a $ > V ` ` Q U T T U T T T Y v ",
"T T T T T T T T Q U Y Q A 1 C f 8.y.y.r.e.B.B.B.t.e.e.r.q.r.q.e.y.y.y.q.q.q.y.y.y.V.8.y.y.y.y.8.p d 1 1 Q E Q T v T T Q T T Y T ",
"~ T T T T T T T T Q Q T R Y E I < * $ $ y & y & & M $ * $ y y & < < $ * e * y < * < * ; e % < < I Q ` Q Q Q Q T v T U T Q T T T ",
"^ U T ! T T T Y T T I T R T Q 1 < m % < = $ ; - > B V V % * * * * % * * & * % % % % % m V % * < : T Q Q T c T v v T T T E T ~ T ",
"^ ^ U T ~ T Y U Y T T T T T Q G N N N > ; - ; 2 : , B B N Z * * < < < M Z V * < * C m m M * * % x T T Q Q U T v v v T T Q T ~ ~ "
};
