/* XPM */
static char *_bcf98739c954a5bef4cfc36491c5d5aqjXSBxvJbk8JgkD1[] = {
/* columns rows colors chars-per-pixel */
"64 64 245 2 ",
"   c #0E0C0D",
".  c #140F0F",
"X  c #13120E",
"o  c #181909",
"O  c #0A0E18",
"+  c #190F16",
"@  c #0D1314",
"#  c #0D141C",
"$  c #0E191D",
"%  c #0E1B15",
"&  c #141415",
"*  c #1B1414",
"=  c #151B15",
"-  c #1B1A16",
";  c #14151B",
":  c #1B151B",
">  c #141A1C",
",  c #1B1B1B",
"<  c #0F1708",
"1  c #260D19",
"2  c #21151B",
"3  c #231D1C",
"4  c #2B1C1B",
"5  c #261A14",
"6  c #381919",
"7  c #2B110D",
"8  c #1B2606",
"9  c #1C211B",
"0  c #1A2815",
"q  c #23221D",
"w  c #2C241D",
"e  c #24291E",
"r  c #2A2A1D",
"t  c #272715",
"y  c #3B241E",
"u  c #35261B",
"i  c #283319",
"p  c #313412",
"a  c #0D1623",
"s  c #0D1924",
"d  c #071726",
"f  c #141622",
"g  c #191622",
"h  c #141A23",
"j  c #1B1C23",
"k  c #121B2B",
"l  c #19192B",
"z  c #0B1D32",
"x  c #061C31",
"c  c #040F21",
"v  c #231D22",
"b  c #251925",
"n  c #301F25",
"m  c #1C2323",
"M  c #1C2429",
"N  c #1A2423",
"B  c #0D2439",
"V  c #17273A",
"C  c #0D2027",
"Z  c #252423",
"A  c #2C2625",
"S  c #262A24",
"D  c #2A2925",
"F  c #24252A",
"G  c #2B2629",
"H  c #252A2A",
"J  c #2B2A2A",
"K  c #312724",
"L  c #312924",
"P  c #3C2A24",
"I  c #30262B",
"U  c #332C2B",
"Y  c #3C2D2C",
"T  c #3C252E",
"R  c #2A3329",
"E  c #353529",
"W  c #2B2B31",
"Q  c #262932",
"!  c #332B33",
"~  c #372930",
"^  c #343234",
"/  c #3A3334",
"(  c #39393A",
")  c #2F3E39",
"_  c #561619",
"`  c #4B1013",
"'  c #661C1D",
"]  c #47241C",
"[  c #57201B",
"{  c #462925",
"}  c #43352C",
"|  c #51382F",
" . c #433B39",
".. c #493938",
"X. c #533D39",
"o. c #512727",
"O. c #6A2B33",
"+. c #6D2E30",
"@. c #384518",
"#. c #394911",
"$. c #394631",
"%. c #454D1C",
"&. c #4D423C",
"*. c #46423A",
"=. c #554434",
"-. c #53453C",
";. c #5A463C",
":. c #54493C",
">. c #5A4A3A",
",. c #594534",
"<. c #5B5639",
"1. c #4B5927",
"2. c #625E38",
"3. c #67463B",
"4. c #626F37",
"5. c #5F682F",
"6. c #1B3551",
"7. c #293648",
"8. c #263952",
"9. c #4A3C41",
"0. c #3D4644",
"q. c #33475B",
"w. c #2B445A",
"e. c #2D4666",
"r. c #344A66",
"t. c #314D72",
"y. c #345072",
"u. c #454143",
"i. c #4C4342",
"p. c #48434A",
"a. c #534643",
"s. c #5B4542",
"d. c #534944",
"f. c #5A4A44",
"g. c #574749",
"h. c #47534C",
"j. c #58584A",
"k. c #464753",
"l. c #4A5653",
"z. c #5A5757",
"x. c #504F5D",
"c. c #634B45",
"v. c #644847",
"b. c #69544C",
"n. c #765B56",
"m. c #745149",
"M. c #667349",
"N. c #796259",
"B. c #667558",
"V. c #707847",
"C. c #4F5C71",
"Z. c #7C5D62",
"A. c #46607B",
"S. c #53646C",
"D. c #796968",
"F. c #7F7760",
"G. c #8B2628",
"H. c #8A353C",
"J. c #913234",
"K. c #BB2B2B",
"L. c #AF332E",
"P. c #AE3333",
"I. c #C42B29",
"U. c #BB3941",
"Y. c #8D3740",
"T. c #88534F",
"R. c #88655A",
"E. c #986C5E",
"W. c #867C55",
"Q. c #997658",
"!. c #93784D",
"~. c #A3715D",
"^. c #8B6B63",
"/. c #8C6B6A",
"(. c #866967",
"). c #986E65",
"_. c #8D7268",
"`. c #967364",
"'. c #9C7464",
"]. c #95736A",
"[. c #9B746B",
"{. c #9B7967",
"}. c #977473",
"|. c #A36E64",
" X c #A27264",
".X c #A47469",
"XX c #778955",
"oX c #758C43",
"OX c #988A57",
"+X c #8F9357",
"@X c #A3965D",
"#X c #A28F57",
"$X c #9AA855",
"%X c #93AA5A",
"&X c #A8BC5D",
"*X c #909263",
"=X c #A7966E",
"-X c #9BAA65",
";X c #9BB368",
":X c #91A574",
">X c #A6A867",
",X c #A7B768",
"<X c #B4BC69",
"1X c #ACB272",
"2X c #9CC84D",
"3X c #9EC957",
"4X c #A4C456",
"5X c #A3CB56",
"6X c #A3C65B",
"7X c #A4CC5B",
"8X c #AACB5D",
"9X c #AAC65A",
"0X c #9EC264",
"qX c #A5C464",
"wX c #ABC362",
"eX c #A4CA64",
"rX c #A9C768",
"tX c #AEC674",
"yX c #B1CC6D",
"uX c #3F5B80",
"iX c #57799C",
"pX c #487093",
"aX c #63758B",
"sX c #5D84AF",
"dX c #7B97B8",
"fX c #6F8CAC",
"gX c #789DC4",
"hX c #6E97C5",
"jX c #7EA9D5",
"kX c #7BA8D8",
"lX c #73A5D5",
"zX c #7AABE2",
"xX c #7CB3E9",
"cX c #7AB7F2",
"vX c #819CB9",
"bX c #81A0BF",
"nX c #8D9B82",
"mX c #86A8CA",
"MX c #84AAD4",
"NX c #87ADD8",
"BX c #8BB2DB",
"VX c #82AFE4",
"CX c #84B3E5",
"ZX c #86B5E8",
"AX c #83B7F3",
/* pixels */
"D D D D D D D Z D D D D D D D D D D D D D D H D S S H R ^ 0.0.N h d $ $ > & > ^ ^ W F J A A r S D H J S S S D L K J G H G L D D ",
"D D D D D D D D D D D D D D D D D D D D D J J H J J D Z > > N # f f k $ $ > # > g W H U K K D S D J D S S D D L K J J D A D S D ",
"D D D D D D D D D D D D D D F S D D J S H D S J J J Z > & @ > ; ; : g # h h f # > R L A K K J J D A D L D D D D D A G J J D D D ",
"D D D D D D D D D D D D D D D D D D D D D J J D G Z - & : > h g : g : # $ h ; h > , 3 w P K D G L K K L A e 3 , Z Z D K D D D S ",
"D D D D D D D D D D D D D D D D S D D D D D D D D D > & g g f f f f f l h f g g h & 5 P P n K Z r t D D D D 3 - e 9 S D D D D D ",
"D D D D D D D D D D D D D D D S D D D S D D L L J G : : f f f a a f : g + 1 1 1 7 7 ` [ _ [ [ { ] y t D D D v v 9 S r D D D D J ",
"D D D D D D D D D D D D D D D D D S D D D D D D J Z ; ; f f f f l : 1 ` ` ` ' _ _ ' J.P.L.L.P.P.J.+.] w D G G A Z S D r L D J G ",
"D D D D D D D D D D D D D D D D D D D D L D D D J D h h h # a f f + b O.m.H.Y.Y.H.J.P.K.I.I.I.I.P.J.{ w D J I G D S r r A D G D ",
"J D D D D D D D D D D D D D D D J D D D A D D D H W N $ > # k $ k f b { O.O.O.O.O.' Y.P.P.K.K.I.P.J.o.D G J I A S S S r D L D D ",
"D S D D D D D D D D D D D D D D J A D D K r D D S M > > h $ $ j g > j 2 7 7 6 ` ` 6 ` T.G.G.G.' +.' y r J J I G D S r r D D D I ",
"D D D D D D D D D D D D D D F D J J A L L r D D W H > s $ > * J j.I * * n s.{ 7 | >._ 3.m.+.] ] ] 6 r r D G J G S S R D D D D J ",
"D D D D D D D D D D D D D D D D J D D A A D D D H M N $ @ * - *.(.=.w 7 ~ /.f.P n._.b.{ =.f.r r t t D D D A D D D S D S D D J D ",
"D Z q D Z D D D D D D D D D D D H D A D D D D J R Q M > - 5 * | `.R.m.y { (.^.T.E.[.}.D.} d.D r r L r K D D S J J D D D D D D D ",
"Z q , q Z D D D D D Z D D D D D J D D D L D D J H H m & J Y y 3.'..X^.P { /.[..XR.m.N.D./ i.R r L L K K D D D D K J D D D D D D ",
"q - - q Z D D D D D D D D D D D D S D D D D D S H J m Z z./.R.`.)..X(.T P (..XE.,.y 5 b Z u.R t D J D D S D D A I D H J D D D S ",
"q - = 3 Z D D D D D D D D D D D D D D D D D Z S 9 9 * t F.=X{.E.|.`.(.{ K D.R.3.| ,.9. .F ( r D D H D D S D L K K A D J I D D D ",
"Z Z v Z Z D D D J D Z D D D J D D r D H j ; = 0 8 8 8 p +X,XOXW.Q.Q._.P P D.,.u m.}./.D.^ ( D D D D D D D D D D K D J J A D D D ",
"G D Z D D D D D D S D D D S J S w R J M > % i M.XXXXXXoX;XrX>X>X=XOXW.] 3  .,.n.R./.9...J *.U q D S D D D D K D D A D D D D D D ",
"J J D D D D D D D D D S S J D D D D M k % 0 1.;XtXtXyXeX9X9XwX<X<X@XW.} 5 2  .D./.(.{ + - ^ A D D D D D D D L A L A D D D D D D ",
"D D J D Z D D D D D D Z D J J J J m a # 0 B.%XtXtXwX8X7X4X9X9XwX&X<X1XW.j.Z 2 G b T 2 * 9 D D D D D S D D D A D A D L A D D D D ",
"D D D D D D D D D D H D J J Z D b g l a N M.%X0X0X7X3X5X6X7X4X8X8XyX,XV.j.9 > ; + , : , , e D J S D D S D D D D D L A J D A D D ",
"J D D D D D D D D D J D J F ; , : g b b % 8 #.%XeX7X2X5X6X9X4X5X5XeX%X%.0 O M N l : m H D S D e D D D D D D D D A A D K D D D D ",
"D D D D D D D D D D H D J J - 3 -.c.s.v.>.t @.%XeX7X2X5X9X9X9X5X5X0X;X#.% N h.S.0.$.W W D D D D S S D S D D D D D D D D A D D A ",
"D D D D D D D D D D J D J D , K R.`.[.[./.E R :X0X3X5X5X4X4X8X4X7X0X;X@.< % $.l.R i S D D J S S D D D R D D D D D D K D D K D D ",
"D D D D D D D D D D D J F J , w R. XE..X].{ - @.4.0X0X7X8X4X8X4X7XrX;X#.< = 0 h.i i H J G J J D J D D D J D J D D D D D A D D K ",
"D D D D Z D D D D D D J D J ; K R.'.|.).).X.w o 1.+XqXeX6X3X7X5X7XrX;X%.i o 9 h.R 0 S J G ! W J J J J J U Z D D D D D D D A A J ",
"D D D D D D D D D D D H J F - A (.}.}.).[.R.b.w o #.oX,XeX7X7X3X8X4XqX;XXX0 % l.0.) S F I G v H Z Z D D J D D J D D D D D D D D ",
"D D D D D D D D D D S J F D - 3 g.b.v.R.`..XR.=.Y < 4.tXqX6X3X8X3X5X8XrX*Xi @ > M h.0.> & g : : * 3 D Z J D J D D D D D D D D L ",
"D J D J D D D D D D D D D S , , 2 2 4 v.`.'.'.`.c.8 4.qXwXwX&XwX8X5X2XwX*Xi 0 $ > l.l.m   5 - * 2 3 U J J D J D D D D D D D D D ",
"D D J D D D D D D D S D J J Z 9 , & * s.].'.).|.m.7 %.5.,X,X$X$X4X5X5XwX-X<.} + X = , ; * / c.b.i.Z v Z G D D J D S D S D D D D ",
"J J J F D D D D D J D D D D J S D g v a.(././.}.n.6 5 ] OX@X#X$XwX9X4X&X1X*Xc.6 5 t F Z 4 v.].].D.G * 2 D G J J R S D D D S D D ",
"J D D D D D D D D D S D D S J J W : & G ~ } X.(.].n.R.n.OXOX!.#XyX9X&X$XQ.{.R.T.N.n.N.n.n.^.[.[.D.Z * Z D D D S D D S D D r D D ",
"F D D D D D D D D D D D D D D J G , : : : : w b.(.).[.|.~.Q.~.#X<X&X<XOX!.~.|.|.|. X{.).[.^.n.n.z.G & 3 D F D J D D D D D D D r ",
"D D D D D D D D D D D D D D D D J v : j : ; & q X./.[.E.~.~.Q.@X&XwX<XOXQ.~.|.~.~.|.~.'.].v.b n b * & v G J D J D D D D Z D r D ",
"D D D D D D D D D D D D D D D S D Z , m h f h * b v.(.[..XQ.Q.OXyXwX1XOXQ.E.|.|.'.'.'.(.v.Y g : & - - Z D G D D D D D D D D D D ",
"D D D D D D D D D D D D D D D D S Z 9 m l h # > 3 5 v.].{.!.OX+XwXwX,X+XW._.].).[.]._.b.w : j f F J G Z S J G D D D D D r D D D ",
"D D D D D D D D D D D D D D D D D Z q S > % R B.j.8 K >.*X=X%X,X6XrX1X5.} | ..........Y * @ & : G J D D J J D F D D D D D D D D ",
"D D D D D D D Z D D D D D D D J F F D D j > ) :XB.t 5 p OX>X>X,X,X;X*Xp o * 1 g 2 2 + : X * Z G D G D G J D D D D D D D D D D D ",
"D D D D D D D D D D D D D D D J ! G D G v > 0 j.j. .-.X.2.2.2.2.2.<.<.8 & . + : * . o X X - ~ ~ J D D D Z D D D D D D D D D S D ",
"D D D D D D D D D D D D D D D A n ! G J j ; w *.>.a.s.s.,.>.>.=.=.<.*.q * ; n G Z U S e W D I A D Z D D D D D D D D D D D D D D ",
"D D D D D D D D D D D D D D D D A A K G v : 3 &.>.;.;.;.;.,.>.;.>.-.&.q : : I I I I G H r S L K D D D D D D D D D D D D D D F D ",
"D D D D D D D D D D S D D D D r r r J G j : 5 &.:.,.;.>.;.;.;.;.>.a.i.Z - & n ! G n S D S r D D D D D D D D D D D D D D D D G D ",
"D D Z D D D D D D D D D D D D D r r J J g g Z &.d.:.:.:.:.:.>.:.s.f.i.w * & D J D D D S S D J D D D D D D D D D D D D D D D S D ",
"D D D D D D D D D D D D D D D D r r D Q l l b 9.f.:.:.:.:.:.:.;.;.f...3 = & m 9 S H D J J J J D D D D D D D D D D D D D D D D D ",
"D D D D D Z H D D D D D D D D D r r S H N g b a.s.s.s.s.s.;.X.v.s.s.&.L q = % = % N H F J G J D D D D D D D D D D D D D D D D D ",
"D D D D D D D D D D D D D D D D r i S H g g v X.;.f.a.s.;.;.v.;.s.;.;.&.E 9 % > % H J F G D R D D D D D D D D D D D D D D D D D ",
"D D D D D D D D D D D D D D D J J H J H g > 4 =.>.=.:.d.;.,.;.;.;.;.f.f...! Z > > W ! G I A r e D D Z D D D D D D r D D D D D D ",
"D D D D D D D D D D D D D D J G W J J G j - 5 =.>.=.d.&.:.:.:.;.-.a.-.a.d.i.! , g W W n L D r S D D A D A D D D D D D D D S w D ",
"M S H D D D J D J S q D r 3 J F F F W G g 2 4 &.f.;.d.d.^ U J J U J U i.f.i.~ v g l s F U L D S D Z Z A v L D S D D D L D D D D ",
"S J J D J D D G Z = X X X & ; ; f h : > * * 3 &.a.i.d.9.Z & , > ; * Z  .&.a.} 2 g h # m  .A U J   *   . - * Z J D D G K K A D D ",
"D J D D A A D J A & - h a f a a # ; # @ * * 3 i.d.i./ Z , * & Z j @ 9 u.d.d.&...F ; : , 3 ../ E , # f a a f @ S D D D A D D D D ",
"K A K L A D A J D O l 8.8.8.8.7.F F F F Z Z J &.u. .D & , , Z 7.u., j ^ p.g.i.-.Y 3 - & 5 z.*.9 ; a V 8.V z O J D D D K J D D S ",
"K K L w D 3 m Z G c e.dXgXlXmXfXx.k.p.p.u.u.p.g. .Z 2 * & 2 / ( R N j m G ..d.f.-...w * ( z.z.N d z w.dXA.z c M D D L A J H J S ",
"I K w r q - , , l c t.zXxXxXBXvXk.! ^ ( ^ / ( U J * X * 3 D U F W M > ; v /  .i.>.;.Y v > h C d V y.iXBXfXy.7.> D K D J H J H S ",
"G D A q 9 = > , Z c t.zXcXcXMXfXQ ; ; > : > > & * * > Z J D Z J H F ; - : j U d.-.-.a.p.V B x B 6.gXBXNXNXdXq.$ D D D A D H D D ",
"G D D D 9 0 = q Z a t.kXcXlXpXq.N > , , > & * > > & = H D J S J H F & ; : : , J ..f.g.x.aXiXsXiXsXkXCXBXfXq.M s J D D D D D D D ",
"J H D S 9 e t t 4 ; e.MXVXkXe.k ; 2 u.^ G F H F F G J G J A L D G H D S & g ; : ~ a.k.C.mXBXCXZXCXBXMXbXA.z s s Q J D D D D D L ",
"J H D D S S r w A f r.MXZXkXr.# O - / J G J J J G G D D K G K I G G Z G , b g g v F k.aXmXjXAXzXxXCXfXw.V s # h Q H D r r u D A ",
"G J J D J S L L K O e.MXVXkXr.f ; Z J J H J H H H S H D J D D A G U D D Z F ; g g g 7.A.mXZXAXAXzXsXA.d > > ; Q Q H D D r w L K ",
"G I D D J D D A G c t.NXZXMXe.d > J H J H H S H H D D S D D D J J J D D D J g h g f g q.mXNXzXCXhX6.B s & q , H H H D D r r L A ",
"K K G J J D A A M d t.NXZXMXe.z # J F J J D D D D D J L A D A D D D D D D J D G g h a 7.uXfXBXsXuXB s h 9 D D J J D D D L D D L ",
"r L D J J J L L M d e.gXMXgXe.k & J G G D D r D D L L D A D J A D D D J S D D U F g h s l C.vXy.z z k @ S r Z J D D S D D D D J ",
"D S F H J D r D R $ V w.q.q.Q O ; F J J D D D D D r D D D D D D D r J J Z D r K A - f f l 7.q.V f > @ @ W D A L D D D S S J J G ",
"S S H H J D u r S > C d c a g + ; Z J D J L D L r D r D D D J D r r W H D D u w Z F F O f g d d g > F S S D L A r D D S S H F W "
};
