/* XPM */
static char *_02153c6c2294f79c0f87ab397a7318d3rVsYSpItsED5dyU[] = {
/* columns rows colors chars-per-pixel */
"64 64 39 1 ",
"  c #2B2925",
". c #2C2A26",
"X c #2C2A25",
"o c #292723",
"O c #21201D",
"+ c #252420",
"@ c #2A2824",
"# c #282623",
"$ c #1D1C19",
"% c #1A1A17",
"& c #21201C",
"* c #1D1B18",
"= c #22201D",
"- c #211F1C",
"; c #1B1A17",
": c #1C1B18",
"> c #282723",
", c #2C2925",
"< c #22211D",
"1 c #262521",
"2 c #25231F",
"3 c #282622",
"4 c #1B1B18",
"5 c #272521",
"6 c #1B1A18",
"7 c #201F1B",
"8 c #24231F",
"9 c #201E1B",
"0 c #1F1E1B",
"q c #1E1D1A",
"w c #292724",
"e c #24221F",
"r c #201F1C",
"t c #1A1916",
"y c #262420",
"u c #272622",
"i c #23221E",
"p c #292824",
"a c white",
/* pixels */
"                                                                ",
"                                                                ",
"                                                                ",
"                                              ..                ",
"                                            XoO+                ",
"     @                                     X#$%$@               ",
"    &*=                                    .-;$:>,              ",
"   @:;;o                                    =;;$@               ",
"    =;<                                      123                ",
"    @>                                       ..                 ",
"     ,                                                      @   ",
"                                                           -$#, ",
"                                                          o4:#, ",
"                                                           53   ",
"                                                           ..   ",
"               ,o@                                              ",
"               <67                                              ",
"             .8;::o                                             ",
"              9;::o                                             ",
"              10q<                                              ",
"              .                                                 ",
"                                                                ",
"                                                                ",
"                                                   ..           ",
"                                                 XoO+           ",
"                                                X#$%$@          ",
"                                                .-;$:>,         ",
"                                                 =;;$@          ",
"                                                  123           ",
"                                                  ..            ",
"                                                                ",
"                                                                ",
"                                                                ",
"                                                                ",
"                                                                ",
"                                                                ",
"                                w                               ",
"                              .2;e.                             ",
"                               rt2.                             ",
"                               o5                               ",
"                                .                               ",
"                                                                ",
"                                                                ",
"                                                                ",
"                                                                ",
"                                                                ",
"                                                                ",
"                                                                ",
"                                                                ",
"                                                 @              ",
"                                                &*=             ",
"                                               @:;;o            ",
"                                                =;<             ",
"                                                @>              ",
"   @@             . ..                           ,              ",
"  @q$@            8rOy                                          ",
" .u;q@           o:;;;e.                                        ",
"   1o            @$:$;i.                                        ",
"   .             .i%;qp                                         ",
"                  @<<oX                                         ",
"                   ..                                           ",
"                                                                ",
"                                                                ",
"                                                                "
};
