/* XPM */
static char *_bebcca6a08d4d78ae5a4051a264351aiR9W5yp23q31IAtM[] = {
/* columns rows colors chars-per-pixel */
"64 64 236 2 ",
"   c #020302",
".  c #0B0302",
"X  c #040A03",
"o  c #0B0A03",
"O  c #04050A",
"+  c #04090B",
"@  c #0C0D0B",
"#  c #0A030A",
"$  c #120201",
"%  c #1C0301",
"&  c #140A04",
"*  c #0C120C",
"=  c #19150B",
"-  c #060A11",
";  c #0B1215",
":  c #081317",
">  c #141314",
",  c #1B1A16",
"<  c #1D1C1A",
"1  c #161717",
"2  c #1C0811",
"3  c #230401",
"4  c #2A0201",
"5  c #240A03",
"6  c #260D0B",
"7  c #320909",
"8  c #23120C",
"9  c #37130D",
"0  c #211F1B",
"q  c #291614",
"w  c #3B1C1B",
"e  c #361A16",
"r  c #1E231E",
"t  c #272601",
"y  c #23221D",
"u  c #29231E",
"i  c #28271B",
"p  c #37211C",
"a  c #37231C",
"s  c #3A380D",
"d  c #191B23",
"f  c #051725",
"g  c #251D22",
"h  c #1B2224",
"j  c #172629",
"k  c #1B2A35",
"l  c #1E3139",
"z  c #0E212F",
"x  c #262521",
"c  c #2A2624",
"v  c #252A24",
"b  c #2A2925",
"n  c #25252A",
"m  c #2D262A",
"M  c #262A2C",
"N  c #2B2B2A",
"B  c #332B2B",
"V  c #362725",
"C  c #27302B",
"Z  c #2C322A",
"A  c #2E3328",
"S  c #32332B",
"D  c #373329",
"F  c #232C34",
"G  c #2C2E33",
"H  c #262D39",
"J  c #3B2D32",
"K  c #25323A",
"L  c #283339",
"P  c #333234",
"I  c #393739",
"U  c #471E1A",
"Y  c #51140F",
"T  c #4A2B09",
"R  c #482319",
"E  c #4E3317",
"W  c #54241A",
"Q  c #442828",
"!  c #5A3B27",
"~  c #463B39",
"^  c #5B3A35",
"/  c #593839",
"(  c #4F2F2C",
")  c #66352B",
"_  c #6A3B36",
"`  c #723B34",
"'  c #3C423B",
"]  c #5F500F",
"[  c #494934",
"{  c #69463C",
"}  c #76433A",
"|  c #6F6B3A",
" . c #222E41",
".. c #2B3845",
"X. c #373D44",
"o. c #38444C",
"O. c #364C54",
"+. c #374956",
"@. c #30474B",
"#. c #3F5465",
"$. c #454A4C",
"%. c #464847",
"&. c #464D55",
"*. c #4D5155",
"=. c #4B535C",
"-. c #44525C",
";. c #535759",
":. c #524D48",
">. c #6B4746",
",. c #734A47",
"<. c #70524C",
"1. c #777757",
"2. c #717045",
"3. c #4A5C6C",
"4. c #475766",
"5. c #5A5E63",
"6. c #505E6B",
"7. c #4C5E72",
"8. c #5B646B",
"9. c #59646A",
"0. c #546473",
"q. c #586A77",
"w. c #4B666B",
"e. c #646769",
"r. c #676E74",
"t. c #6B7275",
"y. c #6B747B",
"u. c #73757A",
"i. c #757A7E",
"p. c #757678",
"a. c #73716B",
"s. c #803E36",
"d. c #83443B",
"f. c #874539",
"g. c #924D3E",
"h. c #857A35",
"j. c #874D47",
"k. c #985545",
"l. c #875654",
"z. c #A65E55",
"x. c #AA5D53",
"c. c #AA5C5A",
"v. c #AD594C",
"b. c #997C42",
"n. c #A66057",
"m. c #BE665A",
"M. c #BA695A",
"N. c #BE705C",
"B. c #857B6C",
"V. c #BB6861",
"C. c #CB5E4F",
"Z. c #CD5F54",
"A. c #D05E5D",
"S. c #CB634D",
"D. c #C7664C",
"F. c #D1624E",
"G. c #C56553",
"H. c #CC6354",
"J. c #C3655B",
"K. c #C3695A",
"L. c #C86756",
"P. c #D16254",
"I. c #D06358",
"U. c #C26762",
"Y. c #99823E",
"T. c #AB9254",
"R. c #939473",
"E. c #B7AC79",
"W. c #B1AB6F",
"Q. c #A79662",
"!. c #C6BC7E",
"~. c #6B7882",
"^. c #737B82",
"/. c #686F81",
"(. c #7C848D",
"). c #758489",
"_. c #7C8B97",
"`. c #7F9097",
"'. c #7F90A0",
"]. c #868A87",
"[. c #858C96",
"{. c #86939B",
"}. c #95989B",
"|. c #969380",
" X c #B8B689",
".X c #AAAD96",
"XX c #B1AD91",
"oX c #B5B59A",
"OX c #ABAC8D",
"+X c #8998A7",
"@X c #959DA5",
"#X c #98A2A7",
"$X c #9AABB7",
"%X c #9CB2BE",
"&X c #A2AEB8",
"*X c #A2B3BC",
"=X c #A8B5BC",
"-X c #B5B9AA",
";X c #C0BE8B",
":X c #BCC4B8",
">X c #A4C1BF",
",X c #C0C09A",
"<X c #C5C7B1",
"1X c #98B2C5",
"2X c #A7BAC7",
"3X c #B4BCC6",
"4X c #AEBED3",
"5X c #B4BFD5",
"6X c #AEC3C9",
"7X c #B5C2CB",
"8X c #ADC5D3",
"9X c #ADCADA",
"0X c #B5CCDC",
"qX c #BCCDDB",
"wX c #B5C6D5",
"eX c #BBD1DE",
"rX c #B7D2D9",
"tX c #B6CDE1",
"yX c #BBCEE3",
"uX c #B7CFE9",
"iX c #B4D4E5",
"pX c #BBD4E4",
"aX c #B4D5EA",
"sX c #BCD4EA",
"dX c #B6D8EB",
"fX c #BAD9ED",
"gX c #B9D9E5",
"hX c #BAD7F1",
"jX c #AFD2E6",
"kX c #C1D3DE",
"lX c #C9D4D5",
"zX c #C3CDCE",
"xX c #C4D3E3",
"cX c #C3DAEB",
"vX c #C4D6EC",
"bX c #C6D6F1",
/* pixels */
"b b b b b b b b b b b b b b b b b b b b b b b b c b b v b b b b x b b b c c b b b b b b b b b b b b b b b b b b b N b b b b b b ",
"b b b b b b b b b b b b b b b b b b b b b b b b c b b b b b b x 0 x b b b b b b b b b b b b b b b b b b b b b b b b b b c b b b ",
"b b b b b b b b b b b b b b b b b b n b b b b b b b b b b b u 0 , 0 x b b b v b b b b b b b b b b b b b b b c c v c b b v b b b ",
"b b b b b b b b b b b b b b b b b c c b b b b b b b b b b x y , , < x b b b b b b b b b b b b b b b b b c x y < u x b b b b b b ",
"b b b b b b b b b b b b b b b b b b b b b b b b b b b b b b y < < 0 x b b b b b b b b b b b b b b b b b b x y , y x b N b c b c ",
"b b b b b b b b b b b b b b b b b b b b b b b b b b b b b b b y y x c b b b b b b b b b b b b b b b b b b c y < y i c b b N b b ",
"b b b b b b b b c b b b b b b b b b b b b b b b b b b b b N b b c c b b b b b b b b b b b b b b b b b m b b x c x x b b b b b b ",
"b b b b b b b b b b b b b b b b b b b b b b b b b b b b b b b b b b b b b b b b b b b b b b b b b b b b b b b N b b b v b b b c ",
"m b b b b b b b b b b b b b b b b b b b b b b b b b b b b b b b b b b b b b b b b b b b x < y x b b b b b b b b b b b b b b b b ",
"n b b b b b b b b b n b b b b b b b b b b b b b b b b b b b b b b b b b b b b b b b b b u r r y b b b b b b b b b b b b b b b b ",
"c c b b b b b b b b b b b b b b b b b b b b b b b b b b b b b b b b b b b b b b b v b b c u x c b b b b b b b b b b b b b b b b ",
"N c b b b b b b b b b b b b b b b b b b b b b b b b b b b b b b b b b b b b b b N b b b b b b b b b b b b b b b b b b b b b b b ",
"b x x v b b b b b b b b b b b b b b b b b b b b b b b b b b b b b b b b b b b b b b c b b b b b b b b b b b b b b b b b b b b b ",
"i y 0 y c b b b b b b b b b b b b b b b b b b b b b b b b b b b b b b b b b b b b c c b b b b b b b b b b b b b b b b b b b b b ",
"y < , 0 x b b b b b b b b b b b b b b b b b b b b b b b b b b b b b b b b b b b b b b b b b b b b b b b b b b b b b b b b b b b ",
"y , , < x b b c b b b b b b b b b b b c b b N b b b b b N b b c b b b N b b b b b b b b b b b b b b b b b b b b b v b c b b b b ",
"u y y y x b b b b b b b b b b b m n b b b b Z b b Z b b C j B c 0 y x b v x v v u A i b b c V c N m N b c i B i b v b v b b v i ",
"b b x b b b b b b b b b b b b b b c a A b v N v v b x N v Z u 8 7 3 % $ . X > x b c b N i c D c b x b b N N B b b b b b i b i A ",
"b b b b b b b b b b b b b b b b b c a i b V N m b a V c v i $ ( } g.` 9 $ . # # N b v i c A i b V c b b b b c V b b B b b b N b ",
"b b b b b b b b b b b b b b b b b b b i b b m b b b u g C   . ` m.L.c.` ) w % $ . & u v A y N N u b b b b c x N c b b N m N N N ",
"b b b N b b b N b b b b b b b b b b N i u b m V B u B =   . $ ) K.D.G.K.M.f.Y 9 % . o $.n v N c N A v b A b N v N m m B m m N m ",
"b N b b b b b b b b b b b b b b b b b x b N B m g > .     g 6 ` K.H.G.D.G.L.x.z.U % .     @ X.N r i h i Z i Z v M b m b b m b b ",
"b b b b b b b b b b b b b b b b N N n b M M n d   O O - X.].V _ m.P.P.H.H.H.H.K.n.W % $ #   O O X X Z C v v N b b b b b b b v v ",
"b b b b b b b b b b b b b b b b m N N N M n 1 O O O o.~.#X3X~ _ U.Z.H.H.P.C.P.H.K.k.,.) 3 $ . o   X $.' Z C v N b V b b b b v v ",
"b b b b b b b b b y N N c b b b B c b v h ;   1 o.8.@XwXpX2XQ _ U.C.S.H.D.S.F.F.D.N.N.n.` ) ) R % . & @ $.[ N x b b v N b b i Z ",
"b b b b b b b b B b b c b b b b c c y > X   > X.[.7X$X{.+X(.B _ J.H.D.D.D.D.F.C.k.g.d.} } } } ) U w % $ $ o   o S x b c b b Z i ",
"b b b b b b b b u b c c b b b b i 0 o X * ; I }.#X#X4.z ..F & ,.V.I.G.D.S.P.P.v.Y q J J J B q a <.,.Q e 9 q . .   * A v g m B m ",
"b b b b b b b b v A c b b b b b 8 X   , e.I X.].).K f 4.2X@XV ) V.L.H.H.F.P.I.c.w e.=X%X*X&X9.> q q >.l.<.>.q % .     X @ P m m ",
"b b b b b b b b N b c c c b b u @   h 8.=X$.> P G : 3.1XsX3XQ } K.H.F.F.F.P.A.c.w t.qXcXhXuX1X+X~.1 g V Q Q } ,.p % .     %.J m ",
"b b b b b b b b b x b b c r > @ O j 8.%XwX=.F 8.q.q.$XaXsX2XQ ) K.F.F.F.F.P.A.c.w y.qXgXhXhXhXhX4X/.r.e.%.8 ( / _ ^ D & . o o I ",
"b b b b b b b b N c b y < o   v X.y.$XyXrX3.7.wXrXrXfXhXfX7X~ ` K.H.S.F.S.D.I.c.p y.qXpXjXaXgXgXiXgXtXwX#X$.~ 8 V ,.{ R p 8 . o ",
"b b b b b b b b N u < X     r ^.2XtXjX9X0X#.3.kXcXeX9X1X1X@XV _ J.F.S.S.D.D.G.n.p r.pXhXaXaXiXiXdXgXgXrX:X-X.X[ a 9 6 ,.<.( = . ",
"b b b b B x b m 0   O O O d ).2XgXaXjX2X4X4.-.3X6X>Xw.k l F 2 _ m.H.G.D.S.D.L.x.w y.yXhXaXjXaXiXdXeXlXoXQ.Q. X.X.XB.< 0 e ^ ^ 3 ",
"b b i c b b m > . . O %.X.L =XpXrXiXtX2X8X4.d ..@.@.z ..[.[.b _ K.S.H.H.S.S.G.z.w u.yXsXaXhXdXaXiXkXzXoXh.] W. XOXOXR.R.e ^ >.3 ",
"b A b n 1 1 2 X 1 ~ < 8.&.X.wXxX2XwX2X/.0.k  ./.q.q.q.+XxX3XQ _ m.H.H.I.F.H.H.x.w y.yXsXjXjXdXpXgXpXzXoX| s OX1.' 2.;XW.E ! >.5 ",
"Z i * # @ P G < N r.G 5.=.F ^._.~.^.~.4.@.z 7.9XiXdXyXxX5X[.w ` J.H.I.H.C.P.L.z.w r.yXhXhXaXaXsXiXgXlXoX| t a.*.i s W.T.T ! { 3 ",
"X X o 1 > u.].:.G u.G 5.=.: l K F d &.2X$XO.w.tXfXaXvXbX$Xg 4 s.G.H.H.H.F.P.L.x.w t.yXaXjXjXaXaXdXpXlX-X1.= < a.$.Q Q.T.T ! <.% ",
"    X.*.d i.@X*.P u.n 5.4.K {.&X[.(.^.$X$X@.w.tXsXcXtXwX{.g _ V.H.H.Z.H.C.H.L.z.w u.xXsXaXsXfXsXdXcXlX-XOXR.t s i 6 ] h.T ! { 3 ",
"X   $.t.g ^.@X*.M u.H e.=.X.7XxXxX0XwX8X2XO.3.wXxXqX/.X.F = k.G.H.S.H.H.C.H.L.x.w r.wXuXaXtXuX9XrXrXrX7X-X<XB.| | Y.h.Y.T ! ,.4 ",
"  o $.e.g ^.}.*.G i.F 5.=.o.2XxXyXpXcX0Xy.l k 0.6.6. .H $.q g.L.S.S.H.H.S.H.H.x.U I 0.0.0.q.q.q.w.0.0.8.[.:X;X X;XE.!.E.E ^ ,.4 ",
"  x e.e.M u.}.*.M i.G 8.;.k ^.{._.[._.^.j   j O.+.+.+._.'.x j.K.H.G.H.L.C.H.I.x.e x o.+.+.+.@.+.+.O.O.d C (.R.].].].].B.p _ ,.4 ",
"@ 5.}.u.d ^.#X&.P t.M 5.*.; H F  .F F F h ; =.2X8X8X9X0X$Xg j.K.G.S.L.H.Z.P.L.z.w e.6X8X8XwX8X4X4XwX2X5.: k l l l K  .P 2 / ,.7 ",
"X ;.[.e.h t.}.*.G i.N e.;.F {.&X$X%X2X&X&X&.3.xXcXpXcXxX@Xq j.L.D.S.S.H.C.P.L.z.a y.gXiXiXdXvXpXbXvXyX0...$X1X1X1X1X1X+XJ / >.3 ",
"# < D <   M e.*.b p.M ;.;.G @X&X%X2XqXxXqX4.3.wXvXrXeXlX@XV d.G.S.D.L.H.I.I.J.n.a r.rXdXgXaXsXsXhXuXyX6.-.7XrXiXgXrXbXwX%.[ >.% ",
"    @ @   X M M , P > N v 1 X.$.o.-.6.r.6.F k /.%X=X>X>X].q W k.K.G.K.J.J.J.J.z.p p.eXsXcXpXpXvXpX0X).k h 9.9.0.8.8.9.;.1 < i   ",
"b N N v ;   +     X   X       + + + O + O ; - d 9.q.9.8.$.. 3 T } f.d.} f.f.f.} = $.(._.[._._._._.).j X X X   + O + X X         ",
"b b b N x < , 1 > * * @ @ * @ @ @ @ * * * i 2 O X * @ : : O o & 5 % & & $ & 5 & & * : ; - * : ; ; + X X S X O - O O   o X   # O ",
"b i N v N n b v b u b c n x v b b u c b i D b B A Z P G P P I S D S N C v c D a Z v n G M Z C C N S C A v M n m m b D i S Z P J ",
"b b b b b b b c b v b b b b N N b b b b b c b c b b N N N N b b N c r < r c b N Z b Z b N b N b N A b b v b N b N N b b b b N N ",
"b b b b b b b b b b b b b b b b b b b b b b b b b c c c b c b b c c y y y i b c v c c b c c v b N b b b c b N b b b b b b b b b ",
"b b b b b b b b b b b b b b b c b b b b b b b b c v c c c v b c c c v x u c b b c c c c c v b b b b b b b b b b c c b b c b b i ",
"b b b b c c c b c b b b b b b b b b b b b b b b b b b b b b b b b b b b b b b b b b b N N b b b N b b b b x c b b b b b b b c N ",
"b b c x u r y y c c b b c b b b b b b b b b b b b b b b b b b b b b b b b b b c b b b b b b b b b b b b i y y x b b b b b b b b ",
"b b c c y , , < i v b b v c b b b b b b b b b b b b b b b b b b b b b b b b v b b b b b b b b b b b b b y 0 y c b b b b b b b b ",
"b b b c y , , < y v b c c b b b b b b b b b b b b b b b b b b b b b b b b b b b b b b b b b b b b b b N c x x c b b b b b b b b ",
"b b b b y , < 0 x b N c v b b b b b b b b b b b b c v c c b v c b c v b b b b b b b b b b b b b b b b b b b b b b b b b b b b b ",
"b b b b x y y x b b b b b b b b b b b b b b b b b b b b b b b b b b b b b b b b b b b b b b b b b b b b b b b b b b b b b b b b ",
"b b b b b c b b b b b b b b b b b b b b b b b b b b b b b b b b b b b b b b b b b b b b b b b b b b b b b b b b b b b b b b b b ",
"b b b b b b b b b b b b b b b b b b b b b b b b b b b b b b b b b b b b b b b b b b b b b b b b b b b b b b b b b b b b b b b b ",
"b b b b b b b b b b b b b b b b n b b b b b b b b b b b b b b b b b b b b b b b b b b b b b b b b b b b b b b b b b b b b b b b ",
"b b b b b b b b b b b b b b b b b b b b b b b b b b b b b b b b b b b b b b b b b b b b b b b b b b b b b b b b b b b b b b b b ",
"b b b b b b b N b b b b b b b b b b b b b b b b b b b b b b b b b b b b b b b b b b b b b b b b b b b b b b b b b b b b b b b b ",
"b c c b b b b b b b b b b b b b b b b b b b b b b b b b b b b b b b b b b b b b b b b b b b b b b c b b b b b b b b b b b b b b ",
"b c c n b b b b b b b b b b b b b b b b b b b b b b b b b b b b b b b b b b b b b b b b b b b b b c n b b b b b b b b b b b b b "
};
